<svg width="79" height="73" viewBox="0 0 79 73" fill="none" xmlns="http://www.w3.org/2000/svg">
<g clip-path="url(#clip0_2053_247)">
<g filter="url(#filter0_b_2053_247)">
<path fill-rule="evenodd" clip-rule="evenodd" d="M71.0952 16.5146L69.6273 16.1745L68.0453 15.9983L35.2545 13.6786L33.811 13.6806L32.3617 13.839L30.9214 14.1431L29.5047 14.5833L28.1265 15.1498L26.8014 15.8338L25.5445 16.6266L24.3709 17.5198L23.2963 18.5053L22.3366 19.5753L21.5083 20.7221L20.8282 21.9382L9.63983 50.6965L9.63945 50.6973L9.25768 52.1235L9.08174 53.5147L9.10753 54.8566L9.33105 56.1338L9.7483 57.3308L10.3551 58.431L11.1473 59.4178L12.1197 60.2736L13.2677 60.9809L14.585 61.5212L16.0654 61.8767L50.1393 68.2722L51.8102 68.5398L53.6968 68.5042L55.638 68.1309L57.4343 67.6526L59.171 66.9787L60.8236 66.1228L62.3677 65.099L63.7796 63.9219L65.0361 62.6067L66.1145 61.1692L66.9939 59.6248L67.6533 57.9902L76.9397 26.6243L77.2726 25.2338L77.3651 23.8948L77.2312 22.6205L76.8848 21.4237L76.3398 20.3165L75.6097 19.3104L74.7078 18.4166L73.6467 17.6457L72.4386 17.0083L71.0952 16.5146ZM9.63983 50.6965L20.8282 21.9382L10.2314 49.2501L9.63983 50.6965Z" fill="url(#paint0_linear_2053_247)" fill-opacity="0.5"/>
<path d="M10.9323 51.1332L10.5969 52.3862L10.445 53.5874L10.4669 54.7253L10.6532 55.7901L10.9962 56.7739L11.4906 57.6704L12.1353 58.4736L12.9324 59.175L13.8873 59.7633L15.0048 60.2217L16.3501 60.5448L50.3727 66.9306L51.9057 67.1762L53.5543 67.145L55.3339 66.8029L57.0115 66.3561L58.61 65.7359L60.1323 64.9475L61.5531 64.0054L62.8484 62.9255L63.9955 61.7247L64.9738 60.4208L65.7654 59.0306L66.3662 57.5412L75.6239 26.2723L75.922 25.0269L75.9985 23.9192L75.8897 22.883L75.6102 21.9174L75.1695 21.0221L74.5727 20.1996L73.8233 19.457L72.9252 18.8046L71.8836 18.255L70.7052 17.8219L69.3975 17.519L67.9218 17.3546L35.2074 15.0403L33.8861 15.0421L32.5768 15.1852L31.2648 15.4623L29.9665 15.8656L28.6987 16.3868L27.4782 17.0168L26.3215 17.7463L25.2453 18.5655L24.2656 19.4639L23.3983 20.4309L22.6582 21.4555L22.0632 22.5196L11.5008 49.7426L11.4963 49.7541L11.4917 49.7655L10.9323 51.1332Z" stroke="url(#paint1_linear_2053_247)" stroke-width="2.72323"/>
</g>
<path fill-rule="evenodd" clip-rule="evenodd" d="M74.6991 15.049L74.3662 16.4395L63.5362 49.8454L62.8769 51.48L61.9976 53.0242L60.919 54.4619L59.6626 55.7771L58.2507 56.9542L56.7065 57.978L55.054 58.8339L53.3172 59.5078L51.521 59.9861L49.69 60.2565L47.8491 60.3072L46.023 60.1275L9.51301 54.1141L8.03269 53.7587L6.71534 53.2183L5.56748 52.5111L4.59498 51.6554L5.45148 52.7825L6.24047 53.7657L7.05853 54.8432L6.24088 53.7662L6.24047 53.7657L5.45148 52.7825L4.59498 51.6554L3.80279 50.6685L5.45069 52.7815L5.4511 52.782L5.45148 52.7825L6.24047 53.7657L7.05853 54.8432L8.62658 56.8538L10.1567 58.8157L10.9373 59.7892L11.8884 60.6367L13.0048 61.341L14.2803 61.8845L15.7084 62.2495L50.7392 68.5414L52.4828 68.7374L54.2369 68.7101L55.9785 68.4695L57.6841 68.0268L59.3305 67.394L60.8946 66.5835L62.3535 65.6087L63.6849 64.4835L64.867 63.2222L65.8787 61.8396L66.6996 60.3505L67.3104 58.7702L77.3195 26.295L77.6253 24.9354L77.7018 23.622L76.8627 19.9758L76.5195 18.7902L75.8015 16.3348L75.0658 13.8189L74.3121 11.2414L74.6577 12.4357L74.7916 13.71L74.6991 15.049Z" fill="url(#paint2_linear_2053_247)"/>
<g filter="url(#filter1_b_2053_247)">
<path fill-rule="evenodd" clip-rule="evenodd" d="M68.4868 6.31587L67.019 5.97584L65.4369 5.79963L32.1375 3.94919L30.694 3.95121L29.2447 4.10954L27.8044 4.41373L26.3878 4.85384L25.0095 5.42041L23.6844 6.10441L22.4275 6.89718L21.254 7.79036L20.1794 8.77588L19.2197 9.84589L18.3913 10.9927L17.7112 12.2088L3.05256 42.92L3.05219 42.9208L2.67041 44.347L2.49448 45.7382L2.52027 47.08L2.74379 48.3573L3.16104 49.5543L3.76784 50.6545L4.56 51.6413L5.53246 52.4971L6.68046 53.2044L7.99771 53.7447L9.47812 54.1002L45.9874 60.1135L47.6583 60.3811L49.5449 60.3454L51.4861 59.9722L53.2823 59.4938L55.0191 58.82L56.6717 57.9641L58.2158 56.9403L59.6277 55.7631L60.8841 54.4479L61.9626 53.0104L62.842 51.4661L63.5014 49.8314L74.3313 16.4256L74.6642 15.0351L74.7567 13.6961L74.6228 12.4218L74.2765 11.225L73.7315 10.1178L73.0014 9.11169L72.0994 8.21788L71.0383 7.44705L69.8303 6.80965L68.4868 6.31587ZM3.05256 42.92L17.7112 12.2088L3.64412 41.4736L3.05256 42.92Z" fill="url(#paint3_linear_2053_247)" fill-opacity="0.5"/>
<path d="M4.33504 43.3941L4.00965 44.6096L3.85774 45.8109L3.87961 46.9488L4.06594 48.0136L4.4089 48.9974L4.90334 49.8939L5.54803 50.697L6.34516 51.3985L7.30002 51.9868L8.41753 52.4452L9.74805 52.7647L46.2028 58.769L46.2087 58.7699L47.7538 59.0175L49.4024 58.9863L51.182 58.6441L52.8596 58.1973L54.4581 57.5772L55.9803 56.7888L57.4012 55.8467L58.6965 54.7667L59.8436 53.566L60.8219 52.262L61.6135 50.8719L62.2208 49.3662L73.0196 16.0566L73.3136 14.8283L73.3902 13.7205L73.2813 12.6843L73.0019 11.7187L72.5612 10.8234L71.9644 10.001L71.2149 9.25832L70.3168 8.60589L69.2752 8.05632L68.0968 7.6232L66.7892 7.32028L65.3237 7.15705L32.1007 5.31086L30.7691 5.31272L29.4598 5.45576L28.1478 5.73286L26.8495 6.1362L25.5817 6.65735L24.3612 7.28741L23.2045 8.01692L22.1283 8.83606L21.1486 9.73448L20.2813 10.7015L19.5412 11.7261L18.9211 12.835L4.33504 43.3941Z" stroke="url(#paint4_linear_2053_247)" stroke-width="2.72323"/>
</g>
<g filter="url(#filter2_b_2053_247)">
<path fill-rule="evenodd" clip-rule="evenodd" d="M68.4868 6.31587L67.019 5.97584L65.4369 5.79963L32.1375 3.94919L30.694 3.95121L29.2447 4.10954L27.8044 4.41373L26.3878 4.85384L25.0095 5.42041L23.6844 6.10441L22.4275 6.89718L21.254 7.79036L20.1794 8.77588L19.2197 9.84589L18.3913 10.9927L17.7112 12.2088L3.05256 42.92L3.05219 42.9208L2.67041 44.347L2.49448 45.7382L2.52027 47.08L2.74379 48.3573L3.16104 49.5543L3.76784 50.6545L4.56 51.6413L5.53246 52.4971L6.68046 53.2044L7.99771 53.7447L9.47812 54.1002L45.9874 60.1135L47.6583 60.3811L49.5449 60.3454L51.4861 59.9722L53.2823 59.4938L55.0191 58.82L56.6717 57.9641L58.2158 56.9403L59.6277 55.7631L60.8841 54.4479L61.9626 53.0104L62.842 51.4661L63.5014 49.8314L74.3313 16.4256L74.6642 15.0351L74.7567 13.6961L74.6228 12.4218L74.2765 11.225L73.7315 10.1178L73.0014 9.11169L72.0994 8.21788L71.0383 7.44705L69.8303 6.80965L68.4868 6.31587ZM3.05256 42.92L17.7112 12.2088L3.64412 41.4736L3.05256 42.92Z" fill="url(#paint5_linear_2053_247)" fill-opacity="0.2"/>
<path d="M4.33504 43.3941L4.00965 44.6096L3.85774 45.8109L3.87961 46.9488L4.06594 48.0136L4.4089 48.9974L4.90334 49.8939L5.54803 50.697L6.34516 51.3985L7.30002 51.9868L8.41753 52.4452L9.74805 52.7647L46.2028 58.769L46.2087 58.7699L47.7538 59.0175L49.4024 58.9863L51.182 58.6441L52.8596 58.1973L54.4581 57.5772L55.9803 56.7888L57.4012 55.8467L58.6965 54.7667L59.8436 53.566L60.8219 52.262L61.6135 50.8719L62.2208 49.3662L73.0196 16.0566L73.3136 14.8283L73.3902 13.7205L73.2813 12.6843L73.0019 11.7187L72.5612 10.8234L71.9644 10.001L71.2149 9.25832L70.3168 8.60589L69.2752 8.05632L68.0968 7.6232L66.7892 7.32028L65.3237 7.15705L32.1007 5.31086L30.7691 5.31272L29.4598 5.45576L28.1478 5.73286L26.8495 6.1362L25.5817 6.65735L24.3612 7.28741L23.2045 8.01692L22.1283 8.83606L21.1486 9.73448L20.2813 10.7015L19.5412 11.7261L18.9211 12.835L4.33504 43.3941Z" stroke="url(#paint6_linear_2053_247)" stroke-width="2.72323"/>
</g>
<g filter="url(#filter3_f_2053_247)">
<path d="M9.62826 19.5428C9.47979 19.7134 9.38709 19.9066 9.35986 20.0986C9.11036 21.9172 9.32662 23.6522 10.0068 25.1828C10.0771 25.3404 10.2122 25.4644 10.3875 25.5354C10.4433 25.558 10.5063 25.5742 10.5669 25.585C10.7017 25.6072 10.8478 25.6018 10.9956 25.5694L13.161 25.1081C13.4263 25.0495 13.6897 25.0408 13.9338 25.0797C13.9689 25.0846 14.0024 25.0936 14.0375 25.0986C14.3102 25.1583 14.5451 25.2765 14.7208 25.4491C14.902 25.6194 15.0175 25.8369 15.0659 26.0826C15.1142 26.3283 15.0874 26.599 14.9928 26.8652L14.3294 28.7653C14.2655 28.9563 14.2574 29.1469 14.3261 29.3085C14.3908 29.4685 14.5187 29.5988 14.694 29.6698C15.5265 30.03 16.4281 30.289 17.3789 30.4387C18.3281 30.5924 19.3305 30.6384 20.3629 30.5766C20.576 30.5661 20.7999 30.4952 20.9968 30.3765C21.1937 30.2579 21.3621 30.0953 21.4747 29.9102L22.572 28.0843C22.7232 27.8271 22.9399 27.5919 23.2002 27.3973C23.4565 27.2012 23.7494 27.0522 24.0467 26.9603C24.3497 26.8662 24.6596 26.8348 24.9396 26.8651C24.9747 26.8701 25.0098 26.8751 25.0449 26.8801C25.289 26.9189 25.5041 27.0061 25.6855 27.1303L27.1391 28.1758C27.2393 28.2487 27.3604 28.2931 27.4952 28.3154C27.5598 28.3277 27.6237 28.3305 27.6947 28.327C27.9079 28.3164 28.1341 28.2511 28.3334 28.138C30.2623 27.0273 31.9788 25.5952 33.3593 23.9624C33.5038 23.7902 33.5965 23.597 33.6197 23.4034C33.6414 23.2137 33.5983 23.0348 33.4872 22.8975L32.4143 21.5216C32.266 21.3277 32.18 21.0945 32.1637 20.8387C32.1473 20.5829 32.2068 20.3117 32.3342 20.0448C32.4599 19.782 32.6503 19.5314 32.8859 19.3177C33.1216 19.104 33.4042 18.9231 33.7017 18.8082L35.8258 17.9473C36.0425 17.8597 36.238 17.722 36.3864 17.5514C36.5349 17.3808 36.6276 17.1876 36.6548 16.9956C36.9083 15.1786 36.6824 13.4444 36.0079 11.9114C35.9336 11.7521 35.8024 11.6298 35.6215 11.5612C35.5618 11.537 35.4988 11.5207 35.4382 11.51C35.3074 11.4893 35.1613 11.4947 35.0174 11.5288L32.8617 11.9893C32.598 12.044 32.3345 12.0527 32.0904 12.0138C32.0553 12.0088 32.0219 11.9999 31.9868 11.9949C31.714 11.9352 31.4791 11.817 31.3035 11.6443C31.1239 11.4701 31.0068 11.2565 30.96 11.0069C30.9117 10.7612 30.9368 10.4945 31.0331 10.2243L31.6909 8.32652C31.7604 8.13319 31.7605 7.93942 31.6918 7.77778C31.6247 7.61217 31.4912 7.48427 31.3159 7.41328C30.481 7.07051 29.5913 6.81635 28.6238 6.65063C27.6754 6.50648 26.6866 6.46133 25.6742 6.50816C25.461 6.51873 25.2332 6.58797 25.0347 6.71061C24.8322 6.83163 24.6638 6.99416 24.5495 7.18324L23.4523 9.00918C23.2954 9.26867 23.0828 9.50557 22.8264 9.7017C22.5645 9.90017 22.2756 10.0508 21.9687 10.1434C21.6657 10.2376 21.3615 10.2666 21.0758 10.2386C21.0407 10.2336 21.0056 10.2286 20.9705 10.2237C20.7264 10.1848 20.5073 10.0961 20.3275 9.96787L18.8803 8.92956C18.7801 8.85666 18.659 8.81222 18.5242 8.78993C18.4596 8.77761 18.3957 8.77482 18.3247 8.77834C18.1115 8.78891 17.8853 8.8542 17.686 8.9673C15.7587 10.0741 14.0423 11.5062 12.6617 13.139C12.5188 13.3072 12.4301 13.502 12.4029 13.694C12.3813 13.8837 12.4299 14.0603 12.5355 14.2L13.6027 15.5781C13.7511 15.7721 13.8426 16.0029 13.8574 16.2627C13.8737 16.5185 13.8102 16.7881 13.6868 17.0566C13.5611 17.3194 13.3747 17.5716 13.1351 17.7837C12.8994 17.9974 12.6184 18.1743 12.3193 18.2931L10.1912 19.1525C9.96814 19.2329 9.77274 19.3706 9.62826 19.5428ZM19.0565 20.6894C18.6579 19.8912 18.6929 18.8947 19.1516 17.9177C19.6111 16.9501 20.4564 16.0835 21.5008 15.5143C22.5507 14.9428 23.7164 14.7135 24.7398 14.8788C25.7631 15.0441 26.5676 15.5868 26.9646 16.389C27.3672 17.1888 27.3323 18.1852 26.8752 19.1583C26.4141 20.1298 25.5687 20.9965 24.5204 21.564C23.4744 22.1371 22.3103 22.3625 21.2814 22.1996C20.2564 22.0382 19.4575 21.4932 19.0565 20.6894Z" fill="#AE447D"/>
</g>
<path d="M11.4109 12.8035L12.3249 14.276L13.4098 15.6763L12.4999 14.2055L11.4109 12.8035Z" fill="#CB4A90"/>
<path fill-rule="evenodd" clip-rule="evenodd" d="M30.894 6.79597L30.8944 6.79658L30.2254 8.72773C30.2253 8.72778 30.2253 8.72783 30.2253 8.72788C30.1288 8.99944 30.107 9.273 30.1502 9.52586C30.1834 9.67586 30.2354 9.81461 30.3118 9.93973L31.2266 11.412C31.1502 11.2869 31.0941 11.1465 31.0649 10.9981C31.016 10.7476 31.0419 10.4757 31.1401 10.2L31.14 10.1999L31.8092 8.26818L31.8089 8.26769C31.8797 8.07065 31.8799 7.87327 31.8103 7.70867C31.7959 7.67457 31.7814 7.64048 31.7613 7.60879L30.8543 6.14887C30.8709 6.17618 30.8844 6.20321 30.8955 6.23635C30.9652 6.40112 30.9666 6.59469 30.894 6.79597Z" fill="#E790BE"/>
<path d="M18.0492 19.4234L18.963 20.8955C18.5589 20.0819 18.596 19.0656 19.0639 18.0683C19.5326 17.0807 20.3936 16.1955 21.4563 15.6134C22.5248 15.0288 23.7104 14.7932 24.7508 14.9602C25.6978 15.1129 26.4555 15.5799 26.8879 16.2778L25.9741 14.8057C25.5417 14.1078 24.784 13.6408 23.837 13.488C22.7966 13.321 21.611 13.5567 20.5425 14.1412C19.4797 14.7234 18.6148 15.607 18.1501 16.5962C17.6822 17.5935 17.6451 18.6098 18.0492 19.4234Z" fill="url(#paint7_linear_2053_247)"/>
<path fill-rule="evenodd" clip-rule="evenodd" d="M27.1748 38.5179C27.4939 38.4464 27.8108 38.4355 28.1042 38.482C28.1253 38.485 28.1459 38.4892 28.1665 38.4934C28.1872 38.4976 28.2078 38.5017 28.2289 38.5047C28.5567 38.5764 28.839 38.719 29.0499 38.9275C29.1377 39.0134 29.212 39.105 29.2728 39.2023L28.1921 37.4566C28.1313 37.3593 28.0541 37.261 27.9692 37.1818C27.7516 36.9762 27.4712 36.8288 27.1481 36.7591C27.1079 36.7483 27.0657 36.7423 27.0235 36.7364C26.7349 36.6917 26.418 36.7027 26.0941 36.7722L23.4894 37.334L24.5701 39.0797L27.1748 38.5179ZM22.3503 36.9664L23.431 38.7121C23.5213 38.8604 23.6646 38.9745 23.8369 39.0445C23.9039 39.0717 23.9796 39.0912 24.0525 39.1041C24.2146 39.1308 24.3903 39.124 24.5681 39.0845L24.0277 38.2116L23.4874 37.3388C23.3096 37.3783 23.1339 37.3851 22.9718 37.3584C22.8941 37.3436 22.8232 37.326 22.7562 37.2988C22.581 37.222 22.4425 37.11 22.3503 36.9664Z" fill="#CB4A90"/>
<path fill-rule="evenodd" clip-rule="evenodd" d="M32.9462 17.4798L35.1066 16.5999L35.1075 16.5995C35.3277 16.51 35.5262 16.3695 35.6772 16.1956C35.8284 16.0214 35.9228 15.8243 35.9507 15.6285C36.2104 13.7754 35.9842 12.0031 35.2981 10.4446C35.2861 10.4162 35.2724 10.3919 35.2588 10.3675L36.1734 11.8397L36.1735 11.8397C36.1871 11.8641 36.2008 11.8885 36.2128 11.9169C36.8973 13.4794 37.1251 15.2476 36.8654 17.1008C36.8375 17.2966 36.7431 17.4937 36.5919 17.6678C36.4409 17.8417 36.2424 17.9822 36.0222 18.0718L36.0223 18.0719L33.8621 18.9484L33.8651 18.9532C33.5624 19.0706 33.2748 19.2554 33.0349 19.4736C32.795 19.6918 32.6011 19.9474 32.473 20.2156C32.3432 20.4878 32.2824 20.7645 32.2988 21.0253C32.3138 21.2432 32.3743 21.442 32.4821 21.6175L31.5674 20.1452C31.4596 19.9697 31.395 19.7694 31.384 19.5531C31.3717 19.2939 31.4285 19.0156 31.5583 18.7434C31.6864 18.4752 31.8803 18.2195 32.1202 18.0013C32.3634 17.7854 32.6444 17.6035 32.9476 17.4821L32.9462 17.4798Z" fill="url(#paint8_linear_2053_247)"/>
<path fill-rule="evenodd" clip-rule="evenodd" d="M22.5357 28.4262L22.5359 28.4266C22.69 28.1642 22.9106 27.924 23.1755 27.7253C23.4365 27.525 23.7345 27.3727 24.037 27.2788C24.3453 27.1824 24.6605 27.15 24.9452 27.1807L25.0523 27.1958C25.3005 27.2352 25.5192 27.3238 25.7036 27.4503L24.7889 25.978C24.6061 25.8474 24.3858 25.7629 24.1376 25.7235L24.0305 25.7084C23.7441 25.6817 23.4305 25.7101 23.1223 25.8064C22.814 25.9028 22.5201 26.0567 22.2608 26.253C21.9959 26.4515 21.7795 26.6933 21.6213 26.9539L21.6212 26.9537L20.5034 28.8169L20.5051 28.8196C20.3905 29.0061 20.2244 29.1714 20.0221 29.2898C19.8217 29.411 19.5964 29.4892 19.3771 29.4945C18.327 29.5587 17.3091 29.5087 16.3422 29.357C15.3769 29.2013 14.4585 28.9421 13.6121 28.5756C13.482 28.5229 13.3738 28.437 13.3033 28.3283L14.2061 29.7815C14.2801 29.901 14.3892 29.9923 14.5269 30.0481C15.3733 30.4146 16.29 30.6778 17.257 30.8295C18.2222 30.9853 19.2417 31.0311 20.2919 30.967C20.5087 30.956 20.7365 30.8835 20.9369 30.7622C21.1373 30.641 21.3088 30.4751 21.4235 30.2861L21.4216 30.2831L22.5357 28.4262ZM13.2913 28.3091L13.3033 28.3283C13.2991 28.322 13.2952 28.3156 13.2913 28.3091ZM25.7041 27.4465L24.7893 25.9741L26.2683 27.0348L27.183 28.5073L25.7041 27.4465Z" fill="url(#paint9_linear_2053_247)"/>
<path d="M26.269 27.0379L27.1827 28.5098C27.2845 28.584 27.4076 28.6292 27.5446 28.6517C27.6102 28.6642 27.6751 28.6669 27.7474 28.6632C27.9641 28.6521 28.1942 28.5852 28.397 28.4695C30.3598 27.3337 32.1071 25.8705 33.5132 24.2032C33.6604 24.0274 33.7549 23.8302 33.7789 23.6327C33.7994 23.4667 33.7695 23.3087 33.6908 23.1779L32.7771 21.7059C32.8558 21.8367 32.8857 21.9948 32.8652 22.1607C32.8412 22.3582 32.7467 22.5554 32.5995 22.7312C31.1975 24.4002 29.4461 25.8618 27.4833 26.9975C27.2789 27.1172 27.0528 27.1858 26.8337 27.1912C26.7631 27.1909 26.6982 27.1881 26.6309 27.1797C26.4963 27.1629 26.3708 27.1121 26.269 27.0379Z" fill="#DD59A1"/>
<path d="M8.4638 18.2683C8.31258 18.4426 8.21803 18.6397 8.19004 18.8356C7.93354 20.6909 8.15076 22.4602 8.84002 24.0203C8.91128 24.181 9.04848 24.3072 9.2266 24.3793C9.28328 24.4023 9.3473 24.4188 9.40892 24.4296C9.54595 24.4522 9.69451 24.4464 9.84487 24.4131L12.0473 23.9393C12.3172 23.8791 12.5851 23.8698 12.8332 23.9091C12.8689 23.9141 12.9029 23.9232 12.9386 23.9282C13.2158 23.9887 13.4545 24.1089 13.6328 24.2847C13.8168 24.4582 13.9339 24.6798 13.9827 24.9304C14.0315 25.1809 14.0038 25.457 13.9072 25.7287L13.2298 27.6678C13.1645 27.8627 13.156 28.057 13.2256 28.2218C13.2911 28.3849 13.421 28.5176 13.5991 28.5897C14.445 28.9558 15.3614 29.2186 16.3279 29.3699C17.2928 29.5252 18.312 29.5706 19.3619 29.506C19.5786 29.4949 19.8063 29.4223 20.0067 29.3009C20.2072 29.1796 20.3786 29.0136 20.4934 28.8246L21.6119 26.9605C21.7661 26.698 21.9868 26.4577 22.2518 26.2589C22.5127 26.0584 22.8107 25.906 23.1132 25.8119C23.4214 25.7153 23.7366 25.6828 24.0213 25.7134C24.0569 25.7184 24.0926 25.7234 24.1283 25.7284C24.3764 25.7677 24.595 25.8562 24.7793 25.9827L26.2557 27.0468C26.3575 27.121 26.4806 27.1662 26.6176 27.1887C26.6833 27.2012 26.7482 27.2039 26.8204 27.2002C27.0372 27.1891 27.2673 27.1222 27.4701 27.0065C29.4332 25.8706 31.1807 24.4073 32.5869 22.7398C32.7341 22.5639 32.8287 22.3667 32.8526 22.1692C32.8749 21.9757 32.8314 21.7933 32.7186 21.6534L31.6299 20.2517C31.4793 20.0542 31.3923 19.8164 31.376 19.5555C31.3598 19.2947 31.4207 19.0179 31.5506 18.7456C31.6789 18.4773 31.8728 18.2214 32.1128 18.0031C32.3527 17.7847 32.6404 17.5998 32.943 17.4822L35.1042 16.6008C35.3247 16.5112 35.5236 16.3704 35.6748 16.1961C35.826 16.0219 35.9206 15.8247 35.9486 15.6288C36.2091 13.7752 35.9822 12.0067 35.2986 10.4442C35.2233 10.2818 35.0901 10.1572 34.9063 10.0875C34.8456 10.0629 34.7816 10.0464 34.72 10.0356C34.587 10.0147 34.4384 10.0205 34.2921 10.0554L32.0994 10.5284C31.8312 10.5846 31.5633 10.5939 31.3152 10.5546C31.2795 10.5496 31.2455 10.5405 31.2098 10.5355C30.9326 10.475 30.6939 10.3548 30.5156 10.179C30.3332 10.0015 30.2144 9.78385 30.1673 9.52929C30.1185 9.27876 30.1445 9.00673 30.2428 8.731L30.9146 6.7943C30.9856 6.597 30.986 6.39936 30.9164 6.2346C30.8484 6.06579 30.7128 5.93554 30.5347 5.8634C29.6863 5.51507 28.782 5.25719 27.7985 5.08965C26.8344 4.94406 25.829 4.89953 24.7996 4.94885C24.5828 4.95995 24.351 5.03093 24.149 5.15632C23.9429 5.28006 23.7714 5.44609 23.655 5.63912L22.5364 7.5032C22.3765 7.76811 22.16 8.01007 21.899 8.2105C21.6324 8.41334 21.3384 8.56744 21.0262 8.66233C20.718 8.75886 20.4085 8.78895 20.1181 8.76082C20.0824 8.75579 20.0468 8.75076 20.0111 8.74573C19.763 8.70646 19.5403 8.6163 19.3577 8.48582L17.8878 7.42899C17.786 7.35479 17.6629 7.30965 17.5258 7.28712C17.4602 7.27465 17.3953 7.27191 17.323 7.27561C17.1062 7.28671 16.8761 7.35364 16.6733 7.46931C14.7119 8.60115 12.9644 10.0645 11.5581 11.732C11.4126 11.9038 11.3221 12.1026 11.2941 12.2985C11.2718 12.492 11.321 12.6721 11.4281 12.8143L12.5112 14.2184C12.6617 14.416 12.7544 14.6513 12.7691 14.9162C12.7853 15.1771 12.7203 15.4522 12.5944 15.7262C12.4662 15.9945 12.2763 16.252 12.0323 16.4687C11.7923 16.687 11.5063 16.8679 11.202 16.9896L9.03684 17.8693C8.80988 17.9517 8.61098 18.0925 8.4638 18.2683ZM18.0488 19.4233C17.6447 18.6098 17.6818 17.5934 18.1497 16.5961C18.6184 15.6086 19.4793 14.7234 20.5421 14.1412C21.6106 13.5567 22.7962 13.321 23.8365 13.488C24.8768 13.655 25.694 14.2073 26.0965 15.0249C26.5046 15.8401 26.4675 16.8565 26.0012 17.8497C25.5309 18.8413 24.67 19.7266 23.6031 20.3071C22.5387 20.8932 21.3547 21.1249 20.3087 20.9603C19.2667 20.7973 18.4552 20.2426 18.0488 19.4233Z" fill="url(#paint10_linear_2053_247)"/>
</g>
<defs>
<filter id="filter0_b_2053_247" x="-31.7664" y="-27.1698" width="149.98" height="136.558" filterUnits="userSpaceOnUse" color-interpolation-filters="sRGB">
<feFlood flood-opacity="0" result="BackgroundImageFix"/>
<feGaussianBlur in="BackgroundImageFix" stdDeviation="20.4242"/>
<feComposite in2="SourceAlpha" operator="in" result="effect1_backgroundBlur_2053_247"/>
<feBlend mode="normal" in="SourceGraphic" in2="effect1_backgroundBlur_2053_247" result="shape"/>
</filter>
<filter id="filter1_b_2053_247" x="-38.3543" y="-36.8993" width="153.96" height="138.129" filterUnits="userSpaceOnUse" color-interpolation-filters="sRGB">
<feFlood flood-opacity="0" result="BackgroundImageFix"/>
<feGaussianBlur in="BackgroundImageFix" stdDeviation="20.4242"/>
<feComposite in2="SourceAlpha" operator="in" result="effect1_backgroundBlur_2053_247"/>
<feBlend mode="normal" in="SourceGraphic" in2="effect1_backgroundBlur_2053_247" result="shape"/>
</filter>
<filter id="filter2_b_2053_247" x="-22.8509" y="-21.3958" width="122.953" height="107.122" filterUnits="userSpaceOnUse" color-interpolation-filters="sRGB">
<feFlood flood-opacity="0" result="BackgroundImageFix"/>
<feGaussianBlur in="BackgroundImageFix" stdDeviation="12.6725"/>
<feComposite in2="SourceAlpha" operator="in" result="effect1_backgroundBlur_2053_247"/>
<feBlend mode="normal" in="SourceGraphic" in2="effect1_backgroundBlur_2053_247" result="shape"/>
</filter>
<filter id="filter3_f_2053_247" x="-64.2408" y="-67.0102" width="174.497" height="171.114" filterUnits="userSpaceOnUse" color-interpolation-filters="sRGB">
<feFlood flood-opacity="0" result="BackgroundImageFix"/>
<feBlend mode="normal" in="SourceGraphic" in2="BackgroundImageFix" result="shape"/>
<feGaussianBlur stdDeviation="36.7503" result="effect1_foregroundBlur_2053_247"/>
</filter>
<linearGradient id="paint0_linear_2053_247" x1="55.7548" y1="82.3352" x2="24.2247" y2="1.52455" gradientUnits="userSpaceOnUse">
<stop offset="0.168938" stop-color="#F168BA"/>
<stop offset="0.763637" stop-color="#EDC9E7" stop-opacity="0.39"/>
</linearGradient>
<linearGradient id="paint1_linear_2053_247" x1="60.9459" y1="74.7884" x2="26.182" y2="9.10553" gradientUnits="userSpaceOnUse">
<stop offset="0.180663" stop-color="white" stop-opacity="0.49"/>
<stop offset="0.533255" stop-color="white" stop-opacity="0"/>
</linearGradient>
<linearGradient id="paint2_linear_2053_247" x1="95.4463" y1="29.9989" x2="1.73738" y2="69.4812" gradientUnits="userSpaceOnUse">
<stop stop-color="#FFD9ED"/>
<stop offset="0.348528" stop-color="#DF5CA2"/>
<stop offset="0.563631" stop-color="#B01167"/>
<stop offset="0.76507" stop-color="#B01167"/>
<stop offset="0.957662" stop-color="#D56580"/>
</linearGradient>
<linearGradient id="paint3_linear_2053_247" x1="51.6029" y1="74.1764" x2="20.0729" y2="-6.63417" gradientUnits="userSpaceOnUse">
<stop offset="0.168938" stop-color="#F168BA"/>
<stop offset="0.763637" stop-color="#EDC9E7" stop-opacity="0.39"/>
</linearGradient>
<linearGradient id="paint4_linear_2053_247" x1="56.794" y1="66.6297" x2="22.0301" y2="0.946815" gradientUnits="userSpaceOnUse">
<stop offset="0.180663" stop-color="white" stop-opacity="0.49"/>
<stop offset="0.533255" stop-color="white" stop-opacity="0"/>
</linearGradient>
<linearGradient id="paint5_linear_2053_247" x1="51.6029" y1="74.1764" x2="20.0729" y2="-6.63417" gradientUnits="userSpaceOnUse">
<stop offset="0.168938" stop-color="#F168BA"/>
<stop offset="0.763637" stop-color="#EDC9E7" stop-opacity="0.39"/>
</linearGradient>
<linearGradient id="paint6_linear_2053_247" x1="56.794" y1="66.6297" x2="22.0301" y2="0.946815" gradientUnits="userSpaceOnUse">
<stop offset="0.180663" stop-color="white" stop-opacity="0.14"/>
<stop offset="0.419792" stop-color="white" stop-opacity="0"/>
</linearGradient>
<linearGradient id="paint7_linear_2053_247" x1="23.771" y1="13.3584" x2="20.4712" y2="21.5063" gradientUnits="userSpaceOnUse">
<stop stop-color="#CE4891"/>
<stop offset="1" stop-color="#FE80C8"/>
</linearGradient>
<linearGradient id="paint8_linear_2053_247" x1="37.0082" y1="11.078" x2="32.6933" y2="21.7032" gradientUnits="userSpaceOnUse">
<stop offset="0.539669" stop-color="#EA74B4"/>
<stop offset="1" stop-color="#C83F99"/>
</linearGradient>
<linearGradient id="paint9_linear_2053_247" x1="21.7442" y1="24.7023" x2="18.8581" y2="31.8098" gradientUnits="userSpaceOnUse">
<stop stop-color="#DD59A1"/>
<stop offset="1" stop-color="#C73E88"/>
</linearGradient>
<linearGradient id="paint10_linear_2053_247" x1="27.2477" y1="4.53202" x2="14.6749" y2="28.8319" gradientUnits="userSpaceOnUse">
<stop stop-color="#FFC7E5"/>
<stop offset="1" stop-color="#E291BC"/>
</linearGradient>
<clipPath id="clip0_2053_247">
<rect width="79" height="73" fill="white"/>
</clipPath>
</defs>
</svg>
