<svg width="168" height="163" viewBox="0 0 168 163" fill="none" xmlns="http://www.w3.org/2000/svg">
<path d="M95.0371 68.8086L96.4432 72.0873L97.5493 75.466L98.3306 78.9186L98.7603 82.421L98.8092 85.8347L98.4805 89.0247L97.7927 91.9719L96.7639 94.6542L95.4109 97.0488L93.75 99.1312L91.7938 100.876L89.5518 102.257L87.0298 103.24L84.2323 103.785L81.1667 103.843L77.8466 103.359L74.4131 102.316L71.0262 100.751L67.7376 98.6946L64.6019 96.1883L61.6742 93.2798L59.0084 90.0235L56.6558 86.4795L54.6645 82.712L53.0782 78.7886L51.9353 74.7785L51.268 70.7515L51.1014 66.7753L51.4398 63.0389L52.2361 59.7027L53.435 56.7819L54.9833 54.2843L56.8334 52.2112L58.9446 50.5607L61.2839 49.3311L63.8238 48.5236L66.5394 48.1441L69.4067 48.202L72.4012 48.709L75.4985 49.6784L78.5714 51.0748L81.4988 52.8268L84.2646 54.8964L86.8515 57.2476L89.2412 59.846L91.4151 62.6592L93.3539 65.6565L95.0371 68.8086Z" fill="#5FA3C9" fill-opacity="0.62" stroke="url(#paint0_linear_976_135)" stroke-width="2.83044"/>
<g filter="url(#filter0_b_976_135)">
<path fill-rule="evenodd" clip-rule="evenodd" d="M50.9774 59.5006L50.0961 63.1185L49.6937 67.1217L49.8119 71.3436L50.4433 75.5918L51.5594 79.7994L53.1267 83.8989L55.107 87.8235L57.4586 91.5083L60.1363 94.8909L63.093 97.9124L66.2798 100.518L69.6472 102.658L73.1454 104.288L76.7259 105.369L80.2297 105.855L83.5107 105.758L86.5429 105.124L88.764 104.251L91.0259 103.362L93.3298 102.456L95.6768 101.534L92.6337 102.15L89.3284 102.212L85.7864 101.668L82.1549 100.508L78.5952 98.7818L75.1579 96.5291L71.8944 93.7965L68.8563 90.6364L66.0945 87.1062L63.6583 83.2679L61.5946 79.1871L59.9473 74.9324L58.7561 70.5741L58.0559 66.183L57.8764 61.8296L58.2274 57.7127L59.0687 54.0036L60.3503 50.7259L62.0223 47.8981L64.0365 45.5342L66.3463 43.6446L64.2841 45.0955L62.2597 46.5199L60.2719 47.9185L58.3198 49.292L56.0065 51.1743L53.9809 53.5115L52.2887 56.2919L50.9774 59.5006Z" fill="url(#paint1_linear_976_135)" fill-opacity="0.6"/>
</g>
<g filter="url(#filter1_b_976_135)">
<path fill-rule="evenodd" clip-rule="evenodd" d="M105.981 66.9669L104.522 63.4124L102.777 59.9984L100.77 56.7524L98.5182 53.7037L96.0404 50.8835L93.3529 48.3255L90.471 46.0661L87.4092 44.145L84.1814 42.606L80.9068 41.5291L77.7129 40.9589L74.6274 40.8898L71.6811 41.3172L68.9083 42.237L66.3466 43.6445L64.0368 45.5341L62.0226 47.898L60.3505 50.7259L59.069 54.0036L58.2277 57.7127L57.8767 61.8296L58.0561 66.183L58.7563 70.5741L59.9476 74.9324L61.5949 79.1871L63.6585 83.2678L66.0947 87.1062L68.8566 90.6364L71.8947 93.7965L75.1581 96.529L78.5954 98.7818L82.1551 100.508L85.7867 101.668L89.3287 102.212L92.634 102.15L95.6771 101.534L98.4362 100.411L100.893 98.8291L103.03 96.833L104.833 94.464L106.291 91.7594L107.388 88.7539L108.115 85.4777L108.457 81.9573L108.401 78.2153L107.949 74.3932L107.132 70.6356L105.981 66.9669Z" fill="url(#paint2_linear_976_135)" fill-opacity="0.2"/>
<path d="M103.235 64.0041L104.649 67.4484L105.763 70.9984L106.551 74.6272L106.987 78.3093L107.041 81.8992L106.714 85.2553L106.027 88.3562L104.996 91.1779L103.64 93.695L101.976 95.8804L100.02 97.7081L97.7808 99.1497L95.2663 100.173L92.479 100.738L89.4237 100.795L86.1113 100.286L82.6818 99.1907L79.295 97.5481L76.0032 95.3908L72.8618 92.7605L69.9268 89.7076L67.2523 86.289L64.8903 82.5676L62.8894 78.6108L61.2936 74.4892L60.1418 70.2752L59.4667 66.0419L59.2944 61.8607L59.6295 57.9304L60.4257 54.4201L61.6269 51.3477L63.1788 48.7232L65.0314 46.5489L67.142 44.8222L69.4765 43.5395L72.008 42.6998L74.7137 42.3073L77.5718 42.3713L80.5596 42.9047L83.6536 43.9222L86.7263 45.3873L89.6561 47.2255L92.4263 49.3973L95.0189 51.8651L97.4154 54.5927L99.5969 57.5464L101.543 60.6937L103.235 64.0041Z" stroke="url(#paint3_linear_976_135)" stroke-width="2.83044"/>
</g>
<g filter="url(#filter2_f_976_135)">
<path d="M82.6032 54.0188C83.7326 54.2632 84.692 55.3991 84.7807 56.5729L84.9174 58.6371C88.9817 60.3716 90.8694 64.2901 91.1283 66.8442C91.2551 68.0217 90.4619 68.8164 89.3573 68.614C89.3051 68.6107 89.2528 68.6026 89.2003 68.5898C88.1952 68.3847 87.2692 67.2574 87.1491 66.1508C87.0575 65.3945 86.4826 62.8916 83.2338 62.2305C80.1042 61.5947 79.8776 63.7162 79.9222 64.6588C80.0189 65.4293 80.6121 67.5569 83.7654 68.1921C89.272 69.3088 91.7037 74.2464 91.9952 77.3024L92.0028 77.4065L92.0013 77.5251C91.9672 79.058 91.454 80.3952 90.5371 81.345C89.6202 82.2948 88.3551 82.8082 86.9196 82.8045L87.1183 85.2322C87.2116 86.4012 86.3845 87.1683 85.2793 86.9422C84.1741 86.7161 83.2007 85.5853 83.1073 84.4164L82.9087 81.9887C78.8212 80.2738 77.106 76.4265 76.7805 74.3864C76.5826 73.2061 77.3076 72.3422 78.4051 72.4594C78.4622 72.4673 78.5193 72.4752 78.5765 72.4879C79.6292 72.7012 80.5514 73.6911 80.7385 74.8243C80.8655 75.4848 81.5337 77.7622 84.5918 78.3811C87.6071 78.9916 87.9462 76.9998 87.9879 76.4438C87.8497 75.5416 87.2139 73.0642 84.108 72.4324C78.6014 71.3157 76.1921 66.681 75.9205 63.8332C75.7312 61.225 76.9814 57.8995 80.9299 57.8112L80.778 55.7094C80.6898 54.5546 81.5124 53.7971 82.6032 54.0188Z" fill="url(#paint4_linear_976_135)"/>
</g>
<path fill-rule="evenodd" clip-rule="evenodd" d="M82.013 54.7845L82.013 54.7844C81.9676 54.157 82.1901 53.6499 82.5743 53.3512L81.0882 54.4976C80.704 54.7964 80.4815 55.3034 80.5269 55.9308L80.5269 55.9309L80.6783 58.0254L82.1646 56.8837L82.013 54.7845Z" fill="url(#paint5_linear_976_135)"/>
<path fill-rule="evenodd" clip-rule="evenodd" d="M89.0919 68.7909L89.0919 68.7909C89.0398 68.7876 88.9876 68.7796 88.9353 68.7668C87.9324 68.5625 87.0085 67.439 86.8887 66.3362C86.7973 65.5824 86.2238 63.0882 82.9823 62.4294C81.7275 62.1752 80.9387 62.3668 80.4479 62.7441L81.934 61.5977C82.4248 61.2204 83.2136 61.0288 84.4684 61.283C87.7097 61.937 88.2833 64.4313 88.3748 65.1898C88.4946 66.2926 89.4232 67.4159 90.4214 67.6204L90.5776 67.6444L90.5777 67.6444C91.0558 67.7303 91.4819 67.6299 91.7918 67.3916L90.3088 68.5356C89.9987 68.7756 89.5715 68.877 89.0919 68.7909Z" fill="url(#paint6_linear_976_135)" fill-opacity="0.6"/>
<path fill-rule="evenodd" clip-rule="evenodd" d="M75.6812 64.0314L75.6807 64.0318C75.5529 62.2864 76.0733 60.2161 77.6243 59.0207L79.1076 57.8764C77.5601 59.0711 77.04 61.1375 77.1665 62.8809L77.1668 62.8807C77.4425 65.7186 79.8463 70.3374 85.3358 71.4502C88.4347 72.0797 89.069 74.5487 89.2069 75.4477L87.7208 76.5942C87.5829 75.6951 86.9486 73.2261 83.8497 72.5966C78.3583 71.4845 75.9541 66.8699 75.6812 64.0314ZM88.4183 77.0431L86.933 78.1889C87.5805 77.6891 87.701 76.9112 87.7209 76.5988L89.207 75.4524C89.1871 75.7649 89.0664 76.5386 88.4183 77.0431Z" fill="url(#paint7_linear_976_135)" fill-opacity="0.6"/>
<path d="M91.2472 80.7807L89.7611 81.9271C88.9093 82.5836 87.8364 82.9342 86.6547 82.9332L88.1408 81.7868C89.3272 81.7876 90.3955 81.4419 91.2472 80.7807Z" fill="#3971B4"/>
<path fill-rule="evenodd" clip-rule="evenodd" d="M84.336 83.3982L84.3363 83.398L84.1382 80.9786L82.6521 82.1251L82.8502 84.5442L82.8499 84.5444C82.943 85.7093 83.9143 86.8362 85.017 87.0615C85.5208 87.166 85.9623 87.0594 86.291 86.8094L87.7772 85.663C87.4484 85.913 87.0068 86.0148 86.5031 85.9151C85.4005 85.6898 84.4293 84.5631 84.336 83.3982Z" fill="url(#paint8_linear_976_135)"/>
<path d="M84.1384 80.9786L82.6523 82.125C78.574 80.4161 76.8627 76.582 76.5381 74.5489C76.4195 73.8384 76.6396 73.2416 77.0701 72.9085L78.5562 71.762C78.121 72.0953 77.9056 72.692 78.0242 73.4025C78.3488 75.4356 80.0601 79.2696 84.1384 80.9786Z" fill="url(#paint9_linear_976_135)"/>
<g filter="url(#filter3_b_976_135)">
<path d="M83.8397 53.0994C84.9665 53.3429 85.9237 54.4749 86.0122 55.6447L86.1485 57.7018C90.2037 59.4303 92.0871 63.3353 92.3453 65.8807C92.4717 67.0542 91.6803 67.8462 90.5782 67.6445C90.5261 67.6412 90.4739 67.6332 90.4216 67.6204C89.4187 67.4161 88.4948 66.2926 88.375 65.1898C88.2837 64.436 87.7101 61.9418 84.4686 61.283C81.346 60.6495 81.1198 62.7637 81.1643 63.7031C81.2608 64.4709 81.8525 66.5913 84.9988 67.2242C90.4931 68.3369 92.9192 73.2576 93.21 76.3031L93.2175 76.4069L93.216 76.5251C93.1819 78.0528 92.6698 79.3854 91.755 80.332C90.8401 81.2785 89.5778 81.7903 88.1455 81.7866L88.3436 84.206C88.4367 85.371 87.6114 86.1355 86.5087 85.9102C85.406 85.685 84.4348 84.5581 84.3417 83.3931L84.1436 80.9737C80.0653 79.2648 78.354 75.4307 78.0293 73.3976C77.8319 72.2213 78.5553 71.3603 79.6503 71.4771C79.7073 71.485 79.7642 71.4929 79.8213 71.5055C80.8717 71.718 81.7918 72.7045 81.9785 73.8339C82.1051 74.4921 82.7718 76.7617 85.8231 77.3783C88.8316 77.9867 89.1699 76.0017 89.2116 75.4476C89.0737 74.5485 88.4394 72.0795 85.3405 71.45C79.8463 70.3374 77.4425 65.7186 77.1715 62.8805C76.9827 60.2812 78.2303 56.967 82.1699 56.8788L82.0185 54.7843C81.9305 53.6334 82.7513 52.8784 83.8397 53.0994Z" fill="url(#paint10_linear_976_135)" fill-opacity="0.7"/>
</g>
<defs>
<filter id="filter0_b_976_135" x="-35.2199" y="-41.2687" width="215.81" height="232.037" filterUnits="userSpaceOnUse" color-interpolation-filters="sRGB">
<feFlood flood-opacity="0" result="BackgroundImageFix"/>
<feGaussianBlur in="BackgroundImageFix" stdDeviation="42.4566"/>
<feComposite in2="SourceAlpha" operator="in" result="effect1_backgroundBlur_976_135"/>
<feBlend mode="normal" in="SourceGraphic" in2="effect1_backgroundBlur_976_135" result="shape"/>
</filter>
<filter id="filter1_b_976_135" x="21.0812" y="4.09403" width="124.172" height="134.914" filterUnits="userSpaceOnUse" color-interpolation-filters="sRGB">
<feFlood flood-opacity="0" result="BackgroundImageFix"/>
<feGaussianBlur in="BackgroundImageFix" stdDeviation="18.3979"/>
<feComposite in2="SourceAlpha" operator="in" result="effect1_backgroundBlur_976_135"/>
<feBlend mode="normal" in="SourceGraphic" in2="effect1_backgroundBlur_976_135" result="shape"/>
</filter>
<filter id="filter2_f_976_135" x="0.828217" y="-21.0938" width="166.249" height="183.15" filterUnits="userSpaceOnUse" color-interpolation-filters="sRGB">
<feFlood flood-opacity="0" result="BackgroundImageFix"/>
<feBlend mode="normal" in="SourceGraphic" in2="BackgroundImageFix" result="shape"/>
<feGaussianBlur stdDeviation="37.5371" result="effect1_foregroundBlur_976_135"/>
</filter>
<filter id="filter3_b_976_135" x="38.1309" y="14.0386" width="94.1093" height="110.933" filterUnits="userSpaceOnUse" color-interpolation-filters="sRGB">
<feFlood flood-opacity="0" result="BackgroundImageFix"/>
<feGaussianBlur in="BackgroundImageFix" stdDeviation="19.5112"/>
<feComposite in2="SourceAlpha" operator="in" result="effect1_backgroundBlur_976_135"/>
<feBlend mode="normal" in="SourceGraphic" in2="effect1_backgroundBlur_976_135" result="shape"/>
</filter>
<linearGradient id="paint0_linear_976_135" x1="50.4171" y1="92.0198" x2="74.0333" y2="75.7011" gradientUnits="userSpaceOnUse">
<stop stop-color="white" stop-opacity="0.27"/>
<stop offset="0.688828" stop-color="white" stop-opacity="0"/>
</linearGradient>
<linearGradient id="paint1_linear_976_135" x1="62.4157" y1="53.1536" x2="86.2918" y2="105.172" gradientUnits="userSpaceOnUse">
<stop offset="0.325325" stop-color="#C0DDFF"/>
<stop offset="0.59538" stop-color="#1277C1"/>
<stop offset="0.814274" stop-color="#053174"/>
<stop offset="0.896974" stop-color="#053174"/>
<stop offset="1" stop-color="#0D469B"/>
</linearGradient>
<linearGradient id="paint2_linear_976_135" x1="45.2951" y1="68.8262" x2="123.286" y2="74.6985" gradientUnits="userSpaceOnUse">
<stop offset="0.89375" stop-color="#5A8DEF"/>
</linearGradient>
<linearGradient id="paint3_linear_976_135" x1="53.4866" y1="86.1505" x2="92.6048" y2="91.9588" gradientUnits="userSpaceOnUse">
<stop offset="0.0596223" stop-color="white" stop-opacity="0.45"/>
<stop offset="0.701218" stop-color="white" stop-opacity="0"/>
</linearGradient>
<linearGradient id="paint4_linear_976_135" x1="78.8262" y1="55.9627" x2="83.1579" y2="98.7837" gradientUnits="userSpaceOnUse">
<stop offset="0.46041" stop-color="#1C5485"/>
<stop offset="1" stop-color="#94B4F2"/>
</linearGradient>
<linearGradient id="paint5_linear_976_135" x1="81.5152" y1="53.38" x2="81.6407" y2="57.9992" gradientUnits="userSpaceOnUse">
<stop stop-color="#94C9FA"/>
<stop offset="1" stop-color="#599CD8"/>
</linearGradient>
<linearGradient id="paint6_linear_976_135" x1="83.6992" y1="62.3329" x2="85.4911" y2="69.7202" gradientUnits="userSpaceOnUse">
<stop stop-color="#1277C1"/>
<stop offset="0.544343" stop-color="#1277C1"/>
<stop offset="1" stop-color="#0D469B"/>
</linearGradient>
<linearGradient id="paint7_linear_976_135" x1="79.4355" y1="60.9508" x2="87.8086" y2="77.3597" gradientUnits="userSpaceOnUse">
<stop offset="0.0486117" stop-color="#8FC1ED"/>
<stop offset="0.372917" stop-color="#1277C1"/>
<stop offset="0.716667" stop-color="#1277C1"/>
<stop offset="1" stop-color="#0D469B"/>
</linearGradient>
<linearGradient id="paint8_linear_976_135" x1="85.1347" y1="80.9515" x2="85.3019" y2="87.1045" gradientUnits="userSpaceOnUse">
<stop stop-color="#69A2D8"/>
<stop offset="1" stop-color="#2860A8"/>
</linearGradient>
<linearGradient id="paint9_linear_976_135" x1="80.1627" y1="71.7184" x2="80.6048" y2="84.2238" gradientUnits="userSpaceOnUse">
<stop stop-color="#8EC0ED"/>
<stop offset="1" stop-color="#296FB3"/>
</linearGradient>
<linearGradient id="paint10_linear_976_135" x1="80.071" y1="55.0368" x2="84.3842" y2="97.7121" gradientUnits="userSpaceOnUse">
<stop offset="0.46041" stop-color="#CAE5FF"/>
<stop offset="1" stop-color="#94B4F2"/>
</linearGradient>
</defs>
</svg>
