<svg width="137" height="136" viewBox="0 0 137 136" fill="none" xmlns="http://www.w3.org/2000/svg">
<path fill-rule="evenodd" clip-rule="evenodd" d="M68.7781 11.1404L69.8977 11.8484L70.9853 12.729L91.8065 32.2911L92.6971 33.1952L93.4935 34.1995L94.1931 35.2882L94.7931 36.4462L95.2903 37.6582L95.6811 38.9096L95.9619 40.1855L96.1283 41.4713L96.1758 42.7523L96.0996 44.0136L95.8941 45.2403L95.5536 46.4169L85.5337 70.9671L85.5335 70.9678L84.8774 72.0877L84.1159 73.0573L83.2608 73.8702L82.3238 74.5195L81.3174 74.9981L80.2544 75.2983L79.1477 75.4126L78.0117 75.3331L76.8601 75.0521L75.7083 74.562L74.5713 73.8558L49.8072 56.3394L48.6075 55.4597L47.4642 54.2577L46.4983 52.813L45.6877 51.394L45.0361 49.8915L44.5504 48.3291L44.2367 46.7308L44.1006 45.1205L44.147 43.5221L44.3797 41.9594L44.8023 40.4553L45.4173 39.0329L58.8442 13.7312L59.5082 12.6639L60.2885 11.7787L61.1682 11.0752L62.1307 10.5524L63.16 10.2092L64.2403 10.0442L65.3566 10.0561L66.4943 10.2435L67.6393 10.6053L68.7781 11.1404ZM85.5337 70.9671L95.5536 46.4169L86.0729 69.7034L85.5337 70.9671Z" fill="url(#paint0_linear_976_159)" fill-opacity="0.5"/>
<path fill-rule="evenodd" clip-rule="evenodd" d="M67.7287 8.03044L67.0647 9.09772L52.8625 36.5104L52.2475 37.9327L51.8249 39.4367L51.5922 40.9995L51.5459 42.5979L51.682 44.2082L51.9956 45.8066L52.4813 47.3689L53.1329 48.8715L53.9435 50.2905L54.9056 51.6027L56.0112 52.7854L57.2518 53.8165L83.5699 72.936L84.7068 73.6422L85.8587 74.1323L87.0102 74.4133L88.1462 74.4928L86.9121 74.6535L85.8097 74.7675L84.6304 74.9215L85.8091 74.7675L85.8097 74.7675L86.9121 74.6535L88.1462 74.4928L89.2529 74.3786L86.9132 74.6534L86.9126 74.6535L86.9121 74.6535L85.8097 74.7675L84.6304 74.9215L82.4041 75.183L80.2317 75.4382L79.1406 75.5514L78.0228 75.4801L76.8926 75.2171L75.7646 74.7551L74.654 74.0874L49.0756 56.0651L47.8758 55.0958L46.8092 53.9817L45.8837 52.7439L45.1067 51.4036L44.4853 49.9829L44.0259 48.5039L43.7342 46.9892L43.6153 45.4613L43.6739 43.9427L43.9136 42.4557L44.3378 41.0223L44.9488 39.6639L59.0761 13.3396L59.7375 12.3084L60.5117 11.4491L63.3106 9.7211L64.2642 9.20327L66.2434 8.13535L68.2716 7.04105L70.3493 5.92001L69.3888 6.44173L68.5091 7.14527L67.7287 8.03044Z" fill="url(#paint1_linear_976_159)"/>
<g filter="url(#filter0_b_976_159)">
<path fill-rule="evenodd" clip-rule="evenodd" d="M76.9986 6.50714L78.1182 7.21512L79.2058 8.09573L100.937 27.7792L101.827 28.6833L102.624 29.6876L103.323 30.7763L103.923 31.9343L104.42 33.1463L104.811 34.3977L105.092 35.6736L105.258 36.9594L105.306 38.2404L105.23 39.5017L105.024 40.7284L104.684 41.905L94.5323 70.0475L94.532 70.0482L93.8759 71.1681L93.1144 72.1377L92.2593 72.9506L91.3223 73.5999L90.3159 74.0785L89.2529 74.3787L88.1463 74.493L87.0102 74.4135L85.8586 74.1325L84.7068 73.6425L83.5698 72.9362L57.2523 53.817L56.0526 52.9373L54.9093 51.7354L53.9434 50.2906L53.1328 48.8716L52.4813 47.3691L51.9955 45.8067L51.6819 44.2084L51.5458 42.5981L51.5921 40.9997L51.8248 39.437L52.2474 37.9329L52.8624 36.5105L67.0647 9.09788L67.7287 8.0306L68.509 7.14543L69.3887 6.4419L70.3512 5.9191L71.3804 5.57588L72.4608 5.41091L73.577 5.42281L74.7147 5.61022L75.8598 5.97198L76.9986 6.50714ZM94.5323 70.0475L104.684 41.905L95.0715 68.7838L94.5323 70.0475Z" fill="url(#paint2_linear_976_159)" fill-opacity="0.3"/>
<path d="M92.6832 69.1822L92.1917 70.0212L91.6068 70.766L90.9724 71.369L90.3001 71.8349L89.5981 72.1687L88.8694 72.3745L88.1126 72.4527L87.3244 72.3975L86.5018 72.1968L85.6466 71.833L84.7052 71.2481L58.4544 52.1775L58.4472 52.1723L57.4008 51.405L56.5025 50.4605L55.6732 49.2202L54.9535 47.9603L54.39 46.6609L53.9694 45.3078L53.6983 43.9262L53.5812 42.5417L53.6207 41.1795L53.8167 39.8634L54.1677 38.6143L54.7002 37.3826L68.833 10.104L69.3655 9.24811L69.917 8.62256L70.5175 8.14225L71.1642 7.79102L71.8589 7.55935L72.6043 7.44552L73.4 7.454L74.2409 7.59253L75.1179 7.86962L76.0192 8.29315L76.9312 8.86987L77.8828 9.6403L99.5289 29.2471L100.302 30.0321L100.968 30.8716L101.562 31.7957L102.077 32.7894L102.506 33.8364L102.845 34.9201L103.087 36.0232L103.23 37.1279L103.271 38.2167L103.207 39.2718L103.039 40.2764L102.749 41.277L92.6832 69.1822Z" stroke="url(#paint3_linear_976_159)" stroke-width="4.06593"/>
</g>
<g filter="url(#filter1_d_976_159)">
<path fill-rule="evenodd" clip-rule="evenodd" d="M70.0706 30.1025L71.7424 29.368L69.7607 30.239L70.0706 30.1025ZM97.2712 42.9706L76.9548 47.7727L76.953 47.7731L76.6096 47.8244L76.265 47.8186L75.923 47.7582L75.5876 47.6461L75.2629 47.4848L74.9528 47.2772L74.6614 47.0262L74.3928 46.7347L74.151 46.4057L73.4048 46.8186L72.6586 47.2315L72.9249 47.5184L73.214 47.7653L73.5218 47.9693L73.8444 48.1276L74.1775 48.2374L74.5175 48.2961L74.8603 48.301L75.202 48.2496L95.4574 43.455L95.4585 43.4548L97.2712 42.9706ZM71.4311 29.5051L69.7607 30.239L69.4804 30.4237L69.232 30.6528L69.0178 30.9219L68.8401 31.2272L68.7013 31.5642L68.6037 31.9287L68.5495 32.3165L68.541 32.7229L68.5805 33.1436L68.6699 33.5739L71.902 45.744L72.0368 46.1607L72.2105 46.5495L72.4191 46.9075L72.6586 47.2315L73.4048 46.8186L74.151 46.4057L73.9402 46.0423L73.7644 45.6477L73.6276 45.225L70.3431 32.8802L70.2519 32.4438L70.2111 32.0173L70.2185 31.6055L70.272 31.2128L70.3692 30.8438L70.5079 30.5028L70.6857 30.1942L70.9004 29.9223L71.1497 29.6912L71.4311 29.5051ZM71.4311 29.5051L71.7424 29.368L69.7607 30.239L71.4311 29.5051Z" fill="url(#paint4_linear_976_159)"/>
<path fill-rule="evenodd" clip-rule="evenodd" d="M98.516 39.7251L98.5949 40.1063L98.6361 40.4797L98.6409 40.8419L98.6107 41.1891L98.547 41.5176L98.451 41.8236L98.3241 42.1034L98.1676 42.353L97.9827 42.5686L97.7709 42.746L97.5334 42.8814L97.2716 42.9705L76.9547 47.7727L76.9534 47.7731L76.61 47.8244L76.2654 47.8185L75.9233 47.7582L75.588 47.646L75.2632 47.4847L74.9531 47.2772L74.6617 47.0262L74.3931 46.7347L74.1513 46.4057L73.9405 46.0423L77.8207 40.9362L95.8337 37.3412L96.1105 37.3129L96.3879 37.3357L96.6628 37.4067L96.932 37.5226L97.1924 37.6807L97.4411 37.8779L97.6749 38.1113L97.8909 38.3781L98.0861 38.6756L98.2573 39.001L98.4016 39.3517L98.516 39.7251ZM70.6862 30.194L70.9008 29.9222L71.1499 29.6912L72.4346 29.2572L73.7997 29.6849L74.1102 29.9082L74.4007 30.1715L74.6677 30.4715L74.9072 30.8051L75.1157 31.1692L75.2894 31.561L75.4244 31.9773L77.8207 40.9362L73.9405 46.0423L73.7647 45.6476L73.628 45.2249L70.3434 32.8801L70.2522 32.4437L70.2114 32.0173L70.2189 31.6054L70.2723 31.2128L70.3695 30.8437L70.5082 30.5027L70.6862 30.194ZM73.7997 29.6849L73.4731 29.5048L73.1343 29.3712L72.7868 29.2875L72.4346 29.2572L73.7997 29.6849ZM72.4346 29.2572L72.0817 29.2838L71.7428 29.3679L71.4314 29.505L71.1499 29.6912L72.4346 29.2572Z" fill="url(#paint5_linear_976_159)"/>
</g>
<defs>
<filter id="filter0_b_976_159" x="-1.31118" y="-47.4462" width="159.474" height="174.796" filterUnits="userSpaceOnUse" color-interpolation-filters="sRGB">
<feFlood flood-opacity="0" result="BackgroundImageFix"/>
<feGaussianBlur in="BackgroundImageFix" stdDeviation="26.4285"/>
<feComposite in2="SourceAlpha" operator="in" result="effect1_backgroundBlur_976_159"/>
<feBlend mode="normal" in="SourceGraphic" in2="effect1_backgroundBlur_976_159" result="shape"/>
</filter>
<filter id="filter1_d_976_159" x="0.618379" y="10.3898" width="135.757" height="124.701" filterUnits="userSpaceOnUse" color-interpolation-filters="sRGB">
<feFlood flood-opacity="0" result="BackgroundImageFix"/>
<feColorMatrix in="SourceAlpha" type="matrix" values="0 0 0 0 0 0 0 0 0 0 0 0 0 0 0 0 0 0 127 0" result="hardAlpha"/>
<feOffset dx="-15.0939" dy="33.9613"/>
<feGaussianBlur stdDeviation="26.4144"/>
<feComposite in2="hardAlpha" operator="out"/>
<feColorMatrix type="matrix" values="0 0 0 0 0.103333 0 0 0 0 0.4104 0 0 0 0 0.43 0 0 0 0.25 0"/>
<feBlend mode="normal" in2="BackgroundImageFix" result="effect1_dropShadow_976_159"/>
<feBlend mode="normal" in="SourceGraphic" in2="effect1_dropShadow_976_159" result="shape"/>
</filter>
<linearGradient id="paint0_linear_976_159" x1="37.1898" y1="61.8227" x2="100.438" y2="29.1571" gradientUnits="userSpaceOnUse">
<stop offset="0.320833" stop-color="#C0EEF1"/>
<stop offset="0.58125" stop-color="#8FC3D0"/>
<stop offset="0.89375" stop-color="#2A9FAF" stop-opacity="0.79"/>
</linearGradient>
<linearGradient id="paint1_linear_976_159" x1="45.5602" y1="4.29084" x2="78.7627" y2="87.2934" gradientUnits="userSpaceOnUse">
<stop stop-color="#CBF3FF"/>
<stop offset="0.35896" stop-color="#39B8C9"/>
<stop offset="0.683604" stop-color="#089EB3"/>
<stop offset="1" stop-color="#68A4B7"/>
</linearGradient>
<linearGradient id="paint2_linear_976_159" x1="44.9873" y1="58.9934" x2="108.236" y2="26.3279" gradientUnits="userSpaceOnUse">
<stop offset="0.320833" stop-color="#A2F4FF"/>
<stop offset="0.685417" stop-color="#68D3E9" stop-opacity="0.9405"/>
<stop offset="0.89375" stop-color="#009BB0" stop-opacity="0.79"/>
</linearGradient>
<linearGradient id="paint3_linear_976_159" x1="46.5002" y1="51.0841" x2="109.059" y2="32.2459" gradientUnits="userSpaceOnUse">
<stop offset="0.180663" stop-color="white" stop-opacity="0.35"/>
<stop offset="0.533255" stop-color="white" stop-opacity="0"/>
</linearGradient>
<linearGradient id="paint4_linear_976_159" x1="73.412" y1="16.9421" x2="61.0299" y2="46.6962" gradientUnits="userSpaceOnUse">
<stop offset="0.301696" stop-color="#C5E7EE"/>
<stop offset="0.993284" stop-color="#7FB8C0" stop-opacity="0.63"/>
</linearGradient>
<linearGradient id="paint5_linear_976_159" x1="74.5581" y1="53.1225" x2="100.877" y2="32.9712" gradientUnits="userSpaceOnUse">
<stop stop-color="white"/>
<stop offset="0.644664" stop-color="white" stop-opacity="0.57"/>
</linearGradient>
</defs>
</svg>
