<svg width="180" height="168" viewBox="0 0 180 168" fill="none" xmlns="http://www.w3.org/2000/svg">
<g filter="url(#filter0_b_976_103)">
<path fill-rule="evenodd" clip-rule="evenodd" d="M121.301 66.5854L119.848 66.249L118.283 66.0746L85.8353 63.7792L84.4069 63.7812L82.9728 63.9378L81.5475 64.2388L80.1457 64.6743L78.7819 65.235L77.4707 65.9118L76.2269 66.6963L75.0657 67.5801L74.0023 68.5553L73.0527 69.6141L72.233 70.749L71.56 71.9524L60.4887 100.41L60.4884 100.41L60.1106 101.822L59.9365 103.198L59.962 104.526L60.1832 105.79L60.5961 106.974L61.1965 108.063L61.9804 109.04L62.9427 109.886L64.0787 110.586L65.3821 111.121L66.847 111.473L100.564 117.801L102.218 118.066L104.085 118.031L106.005 117.662L107.783 117.188L109.501 116.521L111.137 115.674L112.665 114.661L114.062 113.497L115.305 112.195L116.372 110.773L117.243 109.244L117.895 107.627L127.084 76.5893L127.414 75.2134L127.505 73.8884L127.373 72.6275L127.03 71.4432L126.491 70.3475L125.768 69.352L124.876 68.4675L123.826 67.7048L122.63 67.074L121.301 66.5854ZM60.4887 100.41L71.56 71.9524L61.0741 98.9783L60.4887 100.41Z" fill="url(#paint0_linear_976_103)" fill-opacity="0.5"/>
<path d="M61.7812 100.846L61.4498 102.084L61.2998 103.271L61.3214 104.395L61.5054 105.446L61.8439 106.418L62.332 107.303L62.9684 108.095L63.7554 108.788L64.6983 109.369L65.8019 109.822L67.1317 110.141L100.798 116.46L102.313 116.703L103.942 116.672L105.701 116.333L107.36 115.892L108.94 115.279L110.445 114.499L111.85 113.568L113.131 112.5L114.265 111.313L115.232 110.024L116.014 108.65L116.608 107.178L125.768 76.2373L126.063 75.0066L126.139 73.9128L126.031 72.8899L125.755 71.9369L125.32 71.0532L124.731 70.2413L123.991 69.508L123.104 68.8636L122.075 68.3207L120.911 67.8928L119.619 67.5934L118.159 67.4309L85.7882 65.1409L84.482 65.1427L83.1879 65.2841L81.8909 65.558L80.6075 65.9567L79.3541 66.4719L78.1474 67.0948L77.004 67.816L75.94 68.6258L74.9716 69.514L74.1143 70.4697L73.3829 71.4823L72.795 72.5337L62.3435 99.4708L62.3391 99.4823L62.3344 99.4937L61.7812 100.846Z" stroke="url(#paint1_linear_976_103)" stroke-width="2.72323"/>
</g>
<path fill-rule="evenodd" clip-rule="evenodd" d="M124.866 65.1352L124.537 66.5112L113.82 99.5674L113.168 101.185L112.298 102.713L111.231 104.136L109.987 105.437L108.59 106.602L107.062 107.615L105.427 108.462L103.708 109.129L101.931 109.602L100.119 109.87L98.2976 109.92L96.4906 109.742L60.3627 103.791L58.8978 103.44L57.5943 102.905L56.4584 102.205L55.4961 101.358L56.3437 102.474L57.1244 103.447L57.9339 104.513L57.1248 103.447L57.1244 103.447L56.3437 102.474L55.4961 101.358L54.7122 100.382L56.3429 102.473L56.3433 102.473L56.3437 102.474L57.1244 103.447L57.9339 104.513L59.4855 106.502L60.9996 108.444L61.772 109.407L62.7133 110.246L63.8179 110.943L65.0801 111.48L66.4933 111.842L101.157 118.068L102.883 118.262L104.618 118.235L106.342 117.997L108.03 117.559L109.659 116.932L111.206 116.13L112.65 115.166L113.968 114.052L115.137 112.804L116.138 111.436L116.951 109.963L117.555 108.399L127.459 76.2635L127.762 74.9181L127.838 73.6185L127.007 70.0104L126.668 68.8372L125.957 66.4076L125.229 63.9179L124.483 61.3674L124.826 62.5493L124.958 63.8102L124.866 65.1352Z" fill="url(#paint2_linear_976_103)"/>
<g filter="url(#filter1_b_976_103)">
<path fill-rule="evenodd" clip-rule="evenodd" d="M118.72 56.4935L117.268 56.157L115.702 55.9826L82.7514 54.1516L81.323 54.1536L79.8889 54.3103L78.4636 54.6113L77.0618 55.0468L75.698 55.6074L74.3868 56.2842L73.143 57.0687L71.9818 57.9525L70.9184 58.9278L69.9688 59.9866L69.1491 61.1214L68.4761 62.3248L53.9709 92.7145L53.9705 92.7153L53.5927 94.1265L53.4186 95.5032L53.4442 96.831L53.6653 98.0949L54.0782 99.2793L54.6787 100.368L55.4625 101.345L56.4248 102.191L57.5608 102.891L58.8643 103.426L60.3292 103.778L96.4563 109.728L98.1097 109.993L99.9766 109.958L101.897 109.588L103.675 109.115L105.393 108.448L107.029 107.601L108.557 106.588L109.954 105.423L111.197 104.122L112.264 102.699L113.135 101.171L113.787 99.5536L124.504 66.4974L124.833 65.1215L124.925 63.7964L124.792 62.5355L124.449 61.3512L123.91 60.2556L123.188 59.26L122.295 58.3756L121.245 57.6128L120.05 56.9821L118.72 56.4935ZM53.9709 92.7145L68.4761 62.3248L54.5562 91.2832L53.9709 92.7145Z" fill="url(#paint3_linear_976_103)" fill-opacity="0.5"/>
<path d="M55.2534 93.1886L54.932 94.3892L54.7819 95.5759L54.8035 96.6998L54.9875 97.7512L55.3261 98.7225L55.8142 99.6074L56.4506 100.4L57.2375 101.093L58.1804 101.674L59.2841 102.126L60.5991 102.442L96.6717 108.384L96.6776 108.384L98.2053 108.629L99.8341 108.598L101.593 108.26L103.252 107.818L104.832 107.205L106.337 106.426L107.742 105.494L109.023 104.427L110.157 103.24L111.124 101.951L111.906 100.577L112.506 99.0884L123.192 66.1284L123.482 64.9146L123.558 63.8208L123.451 62.798L123.175 61.845L122.74 60.9612L122.151 60.1493L121.411 59.416L120.524 58.7717L119.495 58.2288L118.33 57.8008L117.038 57.5015L115.589 57.3401L82.7146 55.5132L81.3981 55.5151L80.104 55.6565L78.807 55.9304L77.5236 56.3291L76.2702 56.8444L75.0635 57.4672L73.9201 58.1884L72.8561 58.9983L71.8877 59.8863L71.0304 60.8421L70.299 61.8548L69.686 62.9509L55.2534 93.1886Z" stroke="url(#paint4_linear_976_103)" stroke-width="2.72323"/>
</g>
<g filter="url(#filter2_b_976_103)">
<path fill-rule="evenodd" clip-rule="evenodd" d="M118.72 56.4935L117.268 56.157L115.702 55.9826L82.7514 54.1516L81.323 54.1536L79.8889 54.3103L78.4636 54.6113L77.0618 55.0468L75.698 55.6074L74.3868 56.2842L73.143 57.0687L71.9818 57.9525L70.9184 58.9278L69.9688 59.9866L69.1491 61.1214L68.4761 62.3248L53.9709 92.7145L53.9705 92.7153L53.5927 94.1265L53.4186 95.5032L53.4442 96.831L53.6653 98.0949L54.0782 99.2793L54.6787 100.368L55.4625 101.345L56.4248 102.191L57.5608 102.891L58.8643 103.426L60.3292 103.778L96.4563 109.728L98.1097 109.993L99.9766 109.958L101.897 109.588L103.675 109.115L105.393 108.448L107.029 107.601L108.557 106.588L109.954 105.423L111.197 104.122L112.264 102.699L113.135 101.171L113.787 99.5536L124.504 66.4974L124.833 65.1215L124.925 63.7964L124.792 62.5355L124.449 61.3512L123.91 60.2556L123.188 59.26L122.295 58.3756L121.245 57.6128L120.05 56.9821L118.72 56.4935ZM53.9709 92.7145L68.4761 62.3248L54.5562 91.2832L53.9709 92.7145Z" fill="url(#paint5_linear_976_103)" fill-opacity="0.2"/>
<path d="M55.2534 93.1886L54.932 94.3892L54.7819 95.5759L54.8035 96.6998L54.9875 97.7512L55.3261 98.7225L55.8142 99.6074L56.4506 100.4L57.2375 101.093L58.1804 101.674L59.2841 102.126L60.5991 102.442L96.6717 108.384L96.6776 108.384L98.2053 108.629L99.8341 108.598L101.593 108.26L103.252 107.818L104.832 107.205L106.337 106.426L107.742 105.494L109.023 104.427L110.157 103.24L111.124 101.951L111.906 100.577L112.506 99.0884L123.192 66.1284L123.482 64.9146L123.558 63.8208L123.451 62.798L123.175 61.845L122.74 60.9612L122.151 60.1493L121.411 59.416L120.524 58.7717L119.495 58.2288L118.33 57.8008L117.038 57.5015L115.589 57.3401L82.7146 55.5132L81.3981 55.5151L80.104 55.6565L78.807 55.9304L77.5236 56.3291L76.2702 56.8444L75.0635 57.4672L73.9201 58.1884L72.8561 58.9983L71.8877 59.8863L71.0304 60.8421L70.299 61.8548L69.686 62.9509L55.2534 93.1886Z" stroke="url(#paint6_linear_976_103)" stroke-width="2.72323"/>
</g>
<g filter="url(#filter3_f_976_103)">
<path d="M73.931 81.4787C73.7574 81.6787 73.6491 81.9051 73.6174 82.1303C73.3267 84.2628 73.5812 86.2975 74.3784 88.093C74.4608 88.278 74.619 88.4234 74.8242 88.5068C74.8895 88.5334 74.9632 88.5525 75.0342 88.5651C75.1919 88.5913 75.3629 88.5851 75.5359 88.5472L78.0697 88.0079C78.3801 87.9393 78.6884 87.9293 78.9741 87.9751C79.0152 87.981 79.0544 87.9915 79.0955 87.9973C79.4147 88.0676 79.6897 88.2064 79.8954 88.409C80.1076 88.6088 80.243 88.864 80.2997 89.1521C80.3565 89.4403 80.3253 89.7577 80.2148 90.0698L79.4399 92.2976C79.3652 92.5215 79.3559 92.745 79.4364 92.9346C79.5123 93.1223 79.6621 93.2752 79.8673 93.3585C80.8418 93.7816 81.8972 94.086 83.01 94.2623C84.121 94.4433 85.2941 94.498 86.5023 94.4263C86.7518 94.4141 87.0137 94.3312 87.2441 94.1922C87.4744 94.0532 87.6714 93.8627 87.803 93.6457L89.0858 91.5052C89.2626 91.2038 89.5159 90.928 89.8205 90.7001C90.1203 90.4703 90.4629 90.2957 90.8109 90.1883C91.1654 90.078 91.528 90.0415 91.8557 90.0773C91.8968 90.0831 91.9379 90.089 91.979 90.0949C92.2647 90.1406 92.5165 90.243 92.7289 90.3888L94.4308 91.616C94.5482 91.7015 94.6899 91.7538 94.8477 91.78C94.9233 91.7945 94.998 91.7978 95.0812 91.7937C95.3307 91.7815 95.5954 91.7051 95.8285 91.5726C98.0851 90.2715 100.093 88.5933 101.707 86.6796C101.876 86.4778 101.985 86.2513 102.012 86.0242C102.037 85.8018 101.986 85.5919 101.856 85.4308L100.599 83.8166C100.426 83.589 100.325 83.3155 100.306 83.0155C100.286 82.7155 100.356 82.3975 100.505 82.0846C100.651 81.7765 100.874 81.4828 101.15 81.2323C101.425 80.9819 101.756 80.77 102.104 80.6355L104.589 79.6275C104.843 79.5249 105.071 79.3635 105.245 79.1636C105.419 78.9637 105.527 78.7372 105.559 78.512C105.854 76.3814 105.588 74.3475 104.798 72.5493C104.711 72.3624 104.557 72.2189 104.345 72.1382C104.275 72.1098 104.202 72.0907 104.131 72.0781C103.978 72.0537 103.807 72.06 103.638 72.0998L101.116 72.6382C100.807 72.7022 100.499 72.7121 100.213 72.6664C100.172 72.6605 100.133 72.65 100.092 72.6441C99.7726 72.5739 99.4975 72.4351 99.2919 72.2325C99.0816 72.028 98.9443 71.7775 98.8894 71.4847C98.8327 71.1965 98.8619 70.8838 98.9744 70.567L99.7427 68.3419C99.8239 68.1153 99.8239 67.888 99.7434 67.6984C99.6648 67.5042 99.5084 67.3541 99.3032 67.2707C98.3258 66.8681 97.2844 66.5694 96.152 66.3743C95.0419 66.2045 93.8847 66.1508 92.6999 66.205C92.4505 66.2172 92.1839 66.2982 91.9516 66.4419C91.7147 66.5837 91.5178 66.7741 91.3842 66.9958L90.1015 69.1363C89.9181 69.4404 89.6694 69.7181 89.3696 69.9479C89.0632 70.1805 88.7252 70.3569 88.3661 70.4652C88.0116 70.5755 87.6555 70.6093 87.3212 70.5762C87.2801 70.5704 87.2391 70.5645 87.198 70.5586C86.9123 70.5129 86.6558 70.4086 86.4453 70.2582L84.7508 69.0394C84.6335 68.9539 84.4917 68.9016 84.3339 68.8754C84.2583 68.8609 84.1836 68.8576 84.1004 68.8617C83.8509 68.8739 83.5862 68.9503 83.3531 69.0828C81.0984 70.3793 79.0907 72.0574 77.4763 73.9712C77.3092 74.1684 77.2055 74.3967 77.1738 74.6219C77.1486 74.8443 77.2057 75.0514 77.3293 75.2153L78.5794 76.8323C78.7532 77.0598 78.8605 77.3306 78.8779 77.6353C78.8973 77.9353 78.8232 78.2514 78.679 78.5661C78.532 78.8743 78.3141 79.1698 78.0338 79.4184C77.7582 79.6689 77.4294 79.8761 77.0795 80.0152L74.5896 81.0214C74.3286 81.1155 74.1 81.2769 73.931 81.4787ZM84.9659 82.8305C84.4988 81.8941 84.539 80.7256 85.0751 79.5801C85.6121 78.4458 86.6008 77.4301 87.8225 76.7635C89.0509 76.094 90.4149 75.826 91.6127 76.0206C92.8105 76.2152 93.7524 76.8522 94.2177 77.7933C94.6894 78.7316 94.6493 79.9001 94.1151 81.0409C93.5762 82.1798 92.5875 83.1955 91.3611 83.8603C90.1374 84.5316 88.7752 84.795 87.5709 84.6031C86.3712 84.4132 85.4358 83.7734 84.9659 82.8305Z" fill="#AE447D"/>
</g>
<path d="M76.0205 73.584L77.0911 75.3111L78.3616 76.9538L77.2958 75.2286L76.0205 73.584Z" fill="#CB4A90"/>
<path fill-rule="evenodd" clip-rule="evenodd" d="M99.8885 67.6075C99.9701 67.8007 99.9697 68.0324 99.8868 68.2636L99.8871 68.264L99.1044 70.5298L99.1044 70.5298C98.9896 70.853 98.9594 71.1719 99.0166 71.4657C99.0508 71.6396 99.1164 71.8043 99.2058 71.951L98.1356 70.2245C98.0461 70.0777 97.9853 69.915 97.9464 69.7391C97.8958 69.4426 97.9213 69.1218 98.0341 68.8034L98.0337 68.8029L98.8165 66.5369L98.8166 66.5371C98.9014 66.3011 98.8998 66.0741 98.8182 65.8809C98.8053 65.8421 98.7894 65.8104 98.77 65.7783L99.8312 67.4903C99.8547 67.5275 99.8716 67.5675 99.8885 67.6075Z" fill="#E790BE"/>
<path d="M83.7874 81.3453L84.858 83.0724C84.3845 82.118 84.4271 80.9261 84.974 79.757C85.5218 78.5992 86.5286 77.5618 87.772 76.8799C89.022 76.1952 90.4094 75.9197 91.627 76.1164C92.7355 76.2963 93.6225 76.8445 94.1291 77.6632L93.0585 75.9361C92.5519 75.1174 91.6649 74.5692 90.5564 74.3893C89.3388 74.1927 87.9514 74.4681 86.7014 75.1528C85.458 75.8347 84.4465 76.8702 83.9034 78.0299C83.3565 79.1991 83.3139 80.391 83.7874 81.3453Z" fill="url(#paint7_linear_976_103)"/>
<path fill-rule="evenodd" clip-rule="evenodd" d="M77.8397 88.359C78.1555 88.2885 78.469 88.2779 78.7594 88.3242C78.7803 88.3271 78.8007 88.3313 78.8211 88.3354C78.8415 88.3396 78.8619 88.3437 78.8828 88.3467C79.2073 88.4178 79.4867 88.559 79.6955 88.7653C79.7824 88.8503 79.856 88.9409 79.9163 89.0372L78.8457 87.3101C78.7854 87.2139 78.709 87.1166 78.6249 87.0382C78.4095 86.8347 78.1319 86.6888 77.8122 86.6196C77.7724 86.609 77.7306 86.603 77.6889 86.5971C77.4032 86.5528 77.0897 86.5634 76.7692 86.632L74.192 87.1859L75.2625 88.9129L77.8397 88.359ZM73.0645 86.8216L74.1351 88.5487C74.2245 88.6954 74.3664 88.8083 74.537 88.8776C74.6033 88.9046 74.6783 88.924 74.7504 88.9367C74.9108 88.9632 75.0847 88.9566 75.2606 88.9177L74.7253 88.0541L74.19 87.1906C74.0141 87.2295 73.8402 87.2362 73.6798 87.2097C73.603 87.195 73.5328 87.1775 73.4664 87.1506C73.293 87.0746 73.1559 86.9636 73.0645 86.8216Z" fill="#CB4A90"/>
<path fill-rule="evenodd" clip-rule="evenodd" d="M103.745 78.0369L104.815 79.7639C105.073 79.659 105.306 79.494 105.483 79.2898C105.659 79.0856 105.77 78.8544 105.803 78.6247C106.106 76.4512 105.839 74.377 105.038 72.5441C105.024 72.5108 105.008 72.4822 104.992 72.4536L104.992 72.4536L103.921 70.7266C103.937 70.7552 103.953 70.7838 103.967 70.8171C104.77 72.6452 105.036 74.7241 104.732 76.8977C104.699 77.1274 104.589 77.3585 104.412 77.5628C104.235 77.767 104.003 77.9319 103.745 78.0369ZM101.218 79.072L101.216 79.069L103.744 78.037L104.815 79.7641L102.287 80.7918L102.291 80.7979C101.937 80.9356 101.601 81.1522 101.32 81.4081C101.039 81.664 100.812 81.9639 100.663 82.2784C100.511 82.5977 100.44 82.9222 100.459 83.2281C100.476 83.4838 100.547 83.7169 100.673 83.9227L99.6029 82.1957C99.4768 81.9898 99.4011 81.7548 99.3882 81.5011C99.3738 81.197 99.4401 80.8706 99.592 80.5514C99.7419 80.2368 99.9686 79.9369 100.249 79.6811C100.534 79.4278 100.863 79.2145 101.218 79.072Z" fill="url(#paint8_linear_976_103)"/>
<path fill-rule="evenodd" clip-rule="evenodd" d="M87.9653 90.1821C88.1503 89.8763 88.4036 89.5927 88.7135 89.3598C89.0169 89.1297 89.3608 88.9492 89.7214 88.8362C90.082 88.7232 90.4488 88.6901 90.784 88.7214L90.9093 88.7392C91.1997 88.7854 91.4575 88.8846 91.6714 89.0378L92.7419 90.7649C92.5262 90.6164 92.2703 90.5125 91.9798 90.4662L91.8546 90.4484C91.5213 90.4124 91.1526 90.4503 90.792 90.5633C90.438 90.6734 90.0894 90.852 89.7841 91.0868C89.4741 91.3198 89.2161 91.6014 89.0358 91.9091L89.0358 91.909L87.7323 94.0873L87.735 94.0915C87.6008 94.313 87.4002 94.5076 87.1658 94.6497C86.9313 94.7919 86.6649 94.8769 86.4112 94.8897C85.1826 94.9647 83.9898 94.9107 82.8604 94.7278C81.7292 94.5497 80.6565 94.2408 79.6662 93.8108C79.5051 93.7453 79.3775 93.6382 79.2908 93.4981L78.2343 91.7937C78.2295 91.7862 78.2248 91.7787 78.2203 91.7711L78.2343 91.7937C78.3169 91.9212 78.4434 92.0219 78.5957 92.0837C79.5859 92.5138 80.6605 92.8179 81.7899 93.0008C82.9212 93.1789 84.112 93.2377 85.3406 93.1627C85.5971 93.1565 85.8607 93.0648 86.0952 92.9227C86.3319 92.7839 86.5261 92.59 86.6602 92.3713L86.6576 92.3672L87.9652 90.182L87.9653 90.1821ZM92.7438 90.76L91.6733 89.0329L93.4038 90.2773L94.4744 92.0043L92.7438 90.76Z" fill="url(#paint9_linear_976_103)"/>
<path d="M93.4035 90.2775L94.4741 92.0045C94.5933 92.0916 94.7374 92.1447 94.8978 92.1712C94.9746 92.1859 95.0506 92.1891 95.1352 92.1848C95.3889 92.172 95.6581 92.0937 95.8954 91.9582C98.1919 90.6276 100.236 88.9128 101.88 86.9584C102.053 86.7523 102.163 86.5211 102.191 86.2895C102.215 86.0949 102.18 85.9095 102.087 85.756L101.017 84.029C101.109 84.1824 101.144 84.3678 101.12 84.5624C101.092 84.7941 100.982 85.0252 100.81 85.2314C99.1701 87.1877 97.1213 88.9005 94.8248 90.2311C94.5856 90.3713 94.3211 90.4516 94.0646 90.4578C93.982 90.4573 93.906 90.4541 93.8272 90.4441C93.6696 90.4243 93.5227 90.3646 93.4035 90.2775Z" fill="#DD59A1"/>
<path d="M72.5691 79.9835C72.3923 80.1878 72.2818 80.4189 72.2492 80.6486C71.9504 82.8241 72.206 84.8991 73.0138 86.7292C73.0973 86.9178 73.258 87.0659 73.4665 87.1506C73.5328 87.1776 73.6078 87.197 73.6799 87.2097C73.8403 87.2363 74.0141 87.2296 74.1901 87.1907L76.7673 86.6367C77.0831 86.5663 77.3966 86.5557 77.687 86.6019C77.7288 86.6078 77.7686 86.6185 77.8104 86.6244C78.1348 86.6955 78.4143 86.8367 78.6231 87.043C78.8385 87.2465 78.9758 87.5066 79.0331 87.8004C79.0904 88.0942 79.0582 88.418 78.9453 88.7365L78.154 91.01C78.0777 91.2385 78.0679 91.4664 78.1495 91.6597C78.2263 91.8511 78.3784 92.0067 78.5869 92.0915C79.5772 92.5215 80.6498 92.8304 81.7811 93.0085C82.9105 93.1913 84.1032 93.2454 85.3319 93.1704C85.5856 93.1575 85.852 93.0726 86.0864 92.9304C86.3209 92.7883 86.5214 92.5937 86.6556 92.3721L87.9632 90.187C88.1435 89.8792 88.4015 89.5976 88.7115 89.3646C89.0167 89.1298 89.3654 88.9512 89.7193 88.8411C90.08 88.7281 90.4487 88.6902 90.7819 88.7262C90.8237 88.7322 90.8655 88.7381 90.9072 88.744C91.1976 88.7903 91.4535 88.8943 91.6693 89.0427L93.3979 90.2917C93.5171 90.3788 93.6612 90.4319 93.8216 90.4584C93.8985 90.4731 93.9744 90.4763 94.059 90.472C94.3127 90.4592 94.5819 90.3808 94.8192 90.2454C97.1157 88.9148 99.1598 87.2 100.804 85.2456C100.976 85.0395 101.087 84.8083 101.115 84.5767C101.141 84.3498 101.09 84.1358 100.958 83.9717L99.6823 82.3271C99.5059 82.0953 99.4039 81.8164 99.3847 81.5105C99.3654 81.2045 99.4366 80.88 99.5884 80.5608C99.7383 80.2462 99.9651 79.9463 100.246 79.6904C100.526 79.4346 100.863 79.2179 101.217 79.0802L103.746 78.0483C104.004 77.9433 104.236 77.7783 104.413 77.5741C104.59 77.3699 104.7 77.1387 104.733 76.909C105.037 74.7355 104.77 72.6613 103.968 70.8284C103.88 70.638 103.724 70.4918 103.509 70.4098C103.438 70.381 103.363 70.3616 103.291 70.3488C103.135 70.3242 102.961 70.3309 102.79 70.3717L100.224 70.9248C99.9105 70.9905 99.597 71.0011 99.3066 70.9549C99.2648 70.949 99.225 70.9383 99.1832 70.9324C98.8588 70.8612 98.5793 70.7201 98.3705 70.5138C98.157 70.3055 98.0178 70.0502 97.9624 69.7516C97.9052 69.4578 97.9354 69.1388 98.0502 68.8155L98.8349 66.5448C98.9178 66.3135 98.9182 66.0817 98.8366 65.8885C98.7569 65.6904 98.5982 65.5376 98.3897 65.4529C97.3964 65.0437 96.338 64.7406 95.1869 64.5434C94.0584 64.3719 92.8818 64.319 91.677 64.376C91.4233 64.3889 91.1521 64.4719 90.9158 64.6188C90.6747 64.7638 90.4741 64.9583 90.338 65.1846L89.0304 67.3698C88.8435 67.6804 88.5902 67.9639 88.2849 68.1988C87.973 68.4365 87.6291 68.617 87.2638 68.728C86.9031 68.841 86.541 68.876 86.2011 68.8428C86.1594 68.8369 86.1176 68.831 86.0759 68.825C85.7855 68.7788 85.5248 68.6729 85.311 68.5197L83.5899 67.2793C83.4707 67.1922 83.3266 67.1391 83.1662 67.1126C83.0894 67.0979 83.0134 67.0947 82.9288 67.099C82.6751 67.1118 82.4059 67.1901 82.1686 67.3256C79.874 68.6515 77.83 70.3662 76.1855 72.3206C76.0153 72.522 75.9095 72.7551 75.8769 72.9848C75.851 73.2117 75.9087 73.4229 76.0342 73.5898L77.3027 75.2372C77.4791 75.469 77.5878 75.7451 77.6051 76.0558C77.6243 76.3617 77.5484 76.6843 77.4014 77.0055C77.2515 77.32 77.0294 77.6218 76.744 77.8758C76.4634 78.1317 76.1288 78.3436 75.7727 78.486L73.2395 79.5161C72.9739 79.6125 72.7412 79.7774 72.5691 79.9835ZM83.7875 81.3453C83.3139 80.391 83.3566 79.1991 83.9034 78.0299C84.4512 76.8721 85.4581 75.8347 86.7014 75.1528C87.9514 74.4681 89.3388 74.1927 90.5564 74.3893C91.7741 74.5859 92.7309 75.2342 93.2025 76.1934C93.6807 77.1497 93.6381 78.3415 93.0931 79.506C92.5434 80.6685 91.5366 81.706 90.2885 82.3859C89.0432 83.0725 87.6578 83.3432 86.4335 83.1494C85.2139 82.9575 84.2638 82.3064 83.7875 81.3453Z" fill="url(#paint10_linear_976_103)"/>
<defs>
<filter id="filter0_b_976_103" x="19.0881" y="22.9307" width="149.265" height="135.984" filterUnits="userSpaceOnUse" color-interpolation-filters="sRGB">
<feFlood flood-opacity="0" result="BackgroundImageFix"/>
<feGaussianBlur in="BackgroundImageFix" stdDeviation="20.4242"/>
<feComposite in2="SourceAlpha" operator="in" result="effect1_backgroundBlur_976_103"/>
<feBlend mode="normal" in="SourceGraphic" in2="effect1_backgroundBlur_976_103" result="shape"/>
</filter>
<filter id="filter1_b_976_103" x="12.5705" y="13.3032" width="153.203" height="137.538" filterUnits="userSpaceOnUse" color-interpolation-filters="sRGB">
<feFlood flood-opacity="0" result="BackgroundImageFix"/>
<feGaussianBlur in="BackgroundImageFix" stdDeviation="20.4242"/>
<feComposite in2="SourceAlpha" operator="in" result="effect1_backgroundBlur_976_103"/>
<feBlend mode="normal" in="SourceGraphic" in2="effect1_backgroundBlur_976_103" result="shape"/>
</filter>
<filter id="filter2_b_976_103" x="28.0739" y="28.8066" width="122.196" height="106.531" filterUnits="userSpaceOnUse" color-interpolation-filters="sRGB">
<feFlood flood-opacity="0" result="BackgroundImageFix"/>
<feGaussianBlur in="BackgroundImageFix" stdDeviation="12.6725"/>
<feComposite in2="SourceAlpha" operator="in" result="effect1_backgroundBlur_976_103"/>
<feBlend mode="normal" in="SourceGraphic" in2="effect1_backgroundBlur_976_103" result="shape"/>
</filter>
<filter id="filter3_f_976_103" x="0.000396729" y="-7.31589" width="179.176" height="175.273" filterUnits="userSpaceOnUse" color-interpolation-filters="sRGB">
<feFlood flood-opacity="0" result="BackgroundImageFix"/>
<feBlend mode="normal" in="SourceGraphic" in2="BackgroundImageFix" result="shape"/>
<feGaussianBlur stdDeviation="36.7503" result="effect1_foregroundBlur_976_103"/>
</filter>
<linearGradient id="paint0_linear_976_103" x1="106.121" y1="131.717" x2="74.921" y2="51.7523" gradientUnits="userSpaceOnUse">
<stop offset="0.168938" stop-color="#F168BA"/>
<stop offset="0.763637" stop-color="#EDC9E7" stop-opacity="0.39"/>
</linearGradient>
<linearGradient id="paint1_linear_976_103" x1="111.258" y1="124.249" x2="76.8578" y2="59.254" gradientUnits="userSpaceOnUse">
<stop offset="0.180663" stop-color="white" stop-opacity="0.49"/>
<stop offset="0.533255" stop-color="white" stop-opacity="0"/>
</linearGradient>
<linearGradient id="paint2_linear_976_103" x1="145.396" y1="79.9286" x2="52.6684" y2="118.998" gradientUnits="userSpaceOnUse">
<stop stop-color="#FFD9ED"/>
<stop offset="0.348528" stop-color="#DF5CA2"/>
<stop offset="0.563631" stop-color="#B01167"/>
<stop offset="0.76507" stop-color="#B01167"/>
<stop offset="0.957662" stop-color="#D56580"/>
</linearGradient>
<linearGradient id="paint3_linear_976_103" x1="102.013" y1="123.644" x2="70.813" y2="43.679" gradientUnits="userSpaceOnUse">
<stop offset="0.168938" stop-color="#F168BA"/>
<stop offset="0.763637" stop-color="#EDC9E7" stop-opacity="0.39"/>
</linearGradient>
<linearGradient id="paint4_linear_976_103" x1="107.15" y1="116.176" x2="72.7498" y2="51.1806" gradientUnits="userSpaceOnUse">
<stop offset="0.180663" stop-color="white" stop-opacity="0.49"/>
<stop offset="0.533255" stop-color="white" stop-opacity="0"/>
</linearGradient>
<linearGradient id="paint5_linear_976_103" x1="102.013" y1="123.644" x2="70.813" y2="43.679" gradientUnits="userSpaceOnUse">
<stop offset="0.168938" stop-color="#F168BA"/>
<stop offset="0.763637" stop-color="#EDC9E7" stop-opacity="0.39"/>
</linearGradient>
<linearGradient id="paint6_linear_976_103" x1="107.15" y1="116.176" x2="72.7498" y2="51.1806" gradientUnits="userSpaceOnUse">
<stop offset="0.180663" stop-color="white" stop-opacity="0.14"/>
<stop offset="0.419792" stop-color="white" stop-opacity="0"/>
</linearGradient>
<linearGradient id="paint7_linear_976_103" x1="90.4791" y1="74.2373" x2="86.6011" y2="83.7807" gradientUnits="userSpaceOnUse">
<stop stop-color="#CE4891"/>
<stop offset="1" stop-color="#FE80C8"/>
</linearGradient>
<linearGradient id="paint8_linear_976_103" x1="105.975" y1="71.5611" x2="100.912" y2="84.0197" gradientUnits="userSpaceOnUse">
<stop offset="0.539669" stop-color="#EA74B4"/>
<stop offset="1" stop-color="#C83F99"/>
</linearGradient>
<linearGradient id="paint9_linear_976_103" x1="88.112" y1="87.545" x2="84.7284" y2="95.8716" gradientUnits="userSpaceOnUse">
<stop stop-color="#DD59A1"/>
<stop offset="1" stop-color="#C73E88"/>
</linearGradient>
<linearGradient id="paint10_linear_976_103" x1="94.5417" y1="63.889" x2="79.7773" y2="92.3406" gradientUnits="userSpaceOnUse">
<stop stop-color="#FFC7E5"/>
<stop offset="1" stop-color="#E291BC"/>
</linearGradient>
</defs>
</svg>
