<svg width="52" height="55" viewBox="0 0 52 55" fill="none" xmlns="http://www.w3.org/2000/svg">
<path fill-rule="evenodd" clip-rule="evenodd" d="M14.029 44.1134C10.5324 42.037 6.71693 40.4399 3.00798 38.9195C2.20837 38.5949 1.28636 38.9638 1.01031 39.7578C0.675006 40.5364 1.06764 41.4359 1.80816 41.7447C5.40386 43.2151 9.10851 44.7502 12.4385 46.7394C13.1472 47.1671 14.0972 46.9319 14.5441 46.2092C14.9909 45.487 14.7375 44.5417 14.029 44.1134Z" fill="black"/>
<path fill-rule="evenodd" clip-rule="evenodd" d="M29.5297 32.1126C25.1109 24.2603 19.7094 17.003 15.4535 9.01534C15.0816 8.27619 14.1448 7.99091 13.4047 8.38959C12.6644 8.78886 12.3544 9.71068 12.7853 10.4657C17.0363 18.4716 22.433 25.7467 26.8469 33.6174C27.2817 34.3582 28.2246 34.6197 28.969 34.2051C29.6542 33.7752 29.9645 32.8534 29.5297 32.1126Z" fill="black"/>
<path fill-rule="evenodd" clip-rule="evenodd" d="M47.3459 11.2377C46.569 14.8462 45.7918 18.4546 45.0147 22.0637C44.7962 22.8793 45.3368 23.6992 46.1746 23.8812C47.0126 24.0626 47.7892 23.5265 48.0079 22.7103C48.7864 19.0959 49.5651 15.4821 50.3434 11.8683C50.5029 11.0368 49.9614 10.2212 49.1223 10.0439C48.3422 9.88248 47.5053 10.4068 47.3459 11.2377Z" fill="black"/>
</svg>
