<svg width="52" height="55" viewBox="0 0 52 55" fill="none" xmlns="http://www.w3.org/2000/svg">
<path fill-rule="evenodd" clip-rule="evenodd" d="M14.028 44.1133C10.5314 42.037 6.71596 40.4398 3.007 38.9195C2.2074 38.5948 1.28539 38.9638 1.00933 39.7577C0.67403 40.5364 1.06666 41.4359 1.80719 41.7447C5.40289 43.215 9.10753 44.7501 12.4376 46.7393C13.1462 47.1671 14.0962 46.9319 14.5432 46.2091C14.99 45.487 14.7365 44.5417 14.028 44.1133Z" fill="white"/>
<path fill-rule="evenodd" clip-rule="evenodd" d="M29.5292 32.1126C25.1104 24.2603 19.7089 17.003 15.453 9.01534C15.0811 8.27619 14.1443 7.99091 13.4042 8.38959C12.664 8.78886 12.3539 9.71068 12.7849 10.4657C17.0358 18.4716 22.4326 25.7467 26.8464 33.6174C27.2812 34.3582 28.2241 34.6197 28.9685 34.2051C29.6537 33.7752 29.964 32.8534 29.5292 32.1126Z" fill="white"/>
<path fill-rule="evenodd" clip-rule="evenodd" d="M47.3455 11.2377C46.5686 14.8462 45.7913 18.4545 45.0142 22.0636C44.7957 22.8793 45.3363 23.6992 46.1741 23.8811C47.0121 24.0625 47.7887 23.5265 48.0074 22.7102C48.7859 19.0958 49.5646 15.4821 50.3429 11.8683C50.5024 11.0368 49.9609 10.2211 49.1218 10.0438C48.3418 9.88242 47.5048 10.4068 47.3455 11.2377Z" fill="white"/>
</svg>
