<svg width="31" height="29" viewBox="0 0 31 29" fill="none" xmlns="http://www.w3.org/2000/svg">
<path fill-rule="evenodd" clip-rule="evenodd" d="M2.92928 11.6946C3.27637 9.24044 3.2791 6.71949 3.26365 4.27643C3.25856 3.75047 2.8346 3.31847 2.32325 3.34956C1.80656 3.34374 1.39279 3.77573 1.39292 4.26474C1.40991 6.63235 1.41608 9.07644 1.07889 11.4164C1.00461 11.9154 1.35991 12.3945 1.87135 12.4763C2.38242 12.5581 2.85463 12.1937 2.92928 11.6946Z" fill="white"/>
<path fill-rule="evenodd" clip-rule="evenodd" d="M13.3176 17.5963C16.6971 13.2677 19.5112 8.52598 23.005 4.25721C23.3335 3.87453 23.274 3.28063 22.8761 2.95793C22.4777 2.63527 21.8864 2.67724 21.563 3.09688C18.0577 7.36719 15.2324 12.1104 11.8415 16.4406C11.5269 16.859 11.6011 17.4508 12.0091 17.7721C12.4117 18.0566 13.003 18.0148 13.3176 17.5963Z" fill="white"/>
<path fill-rule="evenodd" clip-rule="evenodd" d="M29.2414 22.7176C27.0294 23.1277 24.8174 23.5375 22.605 23.9476C22.0949 24.0161 21.7606 24.5127 21.8549 25.0267C21.9496 25.5406 22.4334 25.8515 22.9439 25.783C25.1596 25.3724 27.375 24.9621 29.5903 24.5516C30.0955 24.4462 30.4272 23.9501 30.3299 23.4365C30.2376 22.9599 29.7462 22.6122 29.2414 22.7176Z" fill="white"/>
</svg>
