<svg width="1305" height="1257" viewBox="0 0 1305 1257" fill="none" xmlns="http://www.w3.org/2000/svg">
<path d="M1292.48 11.3584L1292.48 45.8582C1292.48 73.4724 1270.09 95.8581 1242.48 95.8581L60.4804 95.8577C32.8662 95.8577 10.4804 118.243 10.4804 145.858L10.4804 391.357C10.4804 418.971 32.8661 441.357 60.4804 441.357L1242.48 441.357C1270.1 441.357 1292.48 463.743 1292.48 491.357L1292.48 744.357C1292.48 771.971 1270.1 794.357 1242.48 794.357L60.4804 794.357C32.8662 794.357 10.4804 816.743 10.4804 844.357L10.4803 1107.86C10.4803 1135.47 32.8661 1157.86 60.4803 1157.86L1242.48 1157.86C1270.1 1157.86 1292.48 1180.24 1292.48 1207.86L1292.48 1256.86" stroke="black" stroke-dasharray="5 5"/>
<rect x="0.480469" y="233.857" width="24" height="24" rx="12" fill="#1D5EFF"/>
<rect x="1280.48" y="604.857" width="24" height="24" rx="12" fill="#1D5EFF"/>
<rect x="1280.48" y="0.857422" width="24" height="24" rx="12" fill="#1D5EFF"/>
<rect x="0.480469" y="954.857" width="24" height="24" rx="12" fill="#1D5EFF"/>
</svg>
